<?xml version="1.0" standalone="no"?>
<!DOCTYPE svg PUBLIC "-//W3C//DTD SVG 20010904//EN"
 "http://www.w3.org/TR/2001/REC-SVG-20010904/DTD/svg10.dtd">
<svg version="1.0" xmlns="http://www.w3.org/2000/svg"
 width="1080.000000pt" height="1080.000000pt" viewBox="0 0 1080.000000 1080.000000"
 preserveAspectRatio="xMidYMid meet">

<g transform="translate(0.000000,1080.000000) scale(0.100000,-0.100000)"
fill="#000000" stroke="none">
<path d="M0 6798 l0 -4003 123 -1 c141 -2 216 -18 319 -70 79 -40 146 -98 191
-164 16 -25 42 -58 58 -75 70 -76 139 -233 153 -350 4 -37 1 -29 -13 30 -27
113 -56 185 -103 255 -22 34 -42 60 -43 58 -2 -2 5 -28 15 -58 28 -83 47 -194
75 -428 38 -329 74 -478 159 -672 36 -83 140 -260 152 -260 2 0 -12 32 -32 71
-40 80 -110 283 -118 344 -5 32 -3 29 10 -15 81 -295 164 -449 320 -600 104
-100 257 -210 354 -254 30 -14 143 -50 250 -81 123 -35 229 -72 288 -101 152
-74 267 -198 328 -355 l27 -69 554 0 c304 0 553 3 553 6 0 3 -8 18 -18 32 -10
15 -27 45 -37 67 -11 21 -82 103 -157 182 -140 146 -242 268 -358 431 -122
171 -180 257 -180 264 0 4 -31 56 -68 116 -220 349 -268 488 -279 807 -15 424
125 838 421 1250 96 133 171 221 311 361 199 201 376 341 605 479 119 72 507
271 620 318 319 133 624 233 935 307 118 29 171 39 420 86 83 16 401 64 423
64 7 0 20 9 29 20 21 24 36 25 66 6 18 -11 43 -12 137 -4 167 15 914 15 1095
0 565 -48 1012 -138 1480 -301 705 -244 1246 -557 1658 -960 l77 -76 0 2527 0
2526 -77 -25 c-63 -20 -100 -25 -193 -27 -133 -1 -194 14 -280 68 -30 20 -74
44 -97 55 -24 11 -43 23 -43 26 0 3 10 0 22 -6 16 -9 11 1 -18 37 -65 78 -114
157 -218 349 -153 282 -249 419 -390 560 -67 67 -157 145 -200 175 -44 29 -76
48 -72 42 12 -21 -4 -13 -52 23 -59 45 -142 85 -261 125 -121 41 -219 60 -361
70 -63 5 -180 14 -259 20 -184 13 -305 40 -384 83 -34 19 -101 56 -149 82 -47
26 -112 70 -142 97 -52 46 -126 140 -155 196 -23 43 -3 21 33 -38 45 -73 147
-177 209 -213 63 -37 67 -34 18 16 -111 110 -196 311 -226 530 l-6 47 -66 0
-65 0 5 -47 5 -48 -11 48 c-9 39 -14 47 -33 47 -12 0 -25 -6 -27 -12 -4 -10
-6 -10 -6 0 -1 9 -738 12 -3651 12 l-3650 0 0 -4002z m7375 3727 c9 -27 34
-87 55 -132 47 -100 44 -110 -3 -15 -53 104 -118 317 -116 377 0 11 11 -25 24
-80 13 -55 31 -122 40 -150z m12 153 c-3 -8 -6 -5 -6 6 -1 11 2 17 5 13 3 -3
4 -12 1 -19z m69 -186 c-5 -4 -66 144 -66 160 0 7 16 -25 35 -72 19 -46 32
-86 31 -88z m77 -269 c117 -154 268 -242 459 -266 71 -9 119 -8 263 7 97 10
178 16 181 13 11 -10 -345 -39 -418 -34 -172 14 -292 70 -423 202 -49 49 -99
106 -109 125 -23 43 -13 33 47 -47z m1833 -585 c106 -108 178 -204 261 -343
74 -124 156 -275 150 -275 -3 0 -38 60 -78 133 -121 219 -220 358 -345 484
-61 62 -104 108 -95 104 9 -5 57 -51 107 -103z m-7968 -119 c26 -10 27 -23 4
-66 -13 -25 -21 -30 -32 -23 -8 5 -39 10 -68 10 -47 0 -53 -3 -62 -26 -6 -14
-10 -45 -10 -69 0 -80 56 -116 141 -91 23 6 28 4 39 -23 17 -41 8 -58 -37 -70
-91 -26 -184 1 -224 65 -46 75 -33 209 26 264 46 43 149 57 223 29z m3995 -4
c21 -9 20 -7 3 -49 l-14 -34 -66 5 c-86 7 -96 -1 -96 -79 0 -71 9 -91 49 -108
28 -11 54 -10 94 6 18 7 52 -49 43 -71 -3 -8 -22 -19 -43 -24 -101 -28 -192 3
-231 79 -19 37 -23 57 -20 117 4 76 18 108 69 145 43 33 150 39 212 13z m744
-10 c91 -53 105 -240 23 -309 -63 -52 -174 -60 -244 -16 -88 54 -103 221 -28
302 52 57 173 68 249 23z m-4449 13 c19 -26 105 -339 95 -349 -5 -5 -29 -11
-53 -12 -41 -2 -44 0 -52 31 -9 33 -9 33 -65 30 -55 -3 -57 -4 -65 -36 -9 -33
-10 -33 -51 -27 -23 4 -45 10 -49 14 -6 5 84 331 98 353 8 13 131 9 142 -4z
m313 -75 c34 -49 65 -92 70 -98 6 -6 7 25 3 76 -4 53 -3 88 3 92 5 4 29 9 51
13 l42 7 0 -186 c0 -202 2 -197 -60 -197 -25 0 -38 13 -102 104 l-73 105 -3
-99 c-3 -96 -3 -98 -28 -104 -51 -13 -61 -2 -68 81 -3 42 -6 122 -6 179 0 114
-3 109 77 113 29 1 37 -6 94 -86z m537 40 l3 -43 -55 0 -56 0 0 -139 0 -138
-29 -6 c-15 -3 -38 -3 -50 0 -20 5 -21 11 -21 122 0 159 -1 161 -61 161 l-49
0 0 45 0 46 158 -3 157 -3 3 -42z m150 -135 l-3 -182 -30 -7 c-16 -5 -39 -6
-52 -3 -23 6 -23 7 -23 184 0 200 -6 185 78 189 l32 1 -2 -182z m200 132 c19
-27 50 -71 69 -97 l34 -48 -3 90 -3 89 38 9 c68 16 67 18 67 -182 l0 -180 -34
-6 c-19 -4 -43 -4 -53 -1 -10 4 -47 49 -83 101 -36 52 -68 94 -72 95 -5 0 -8
-42 -8 -94 l0 -93 -30 -6 c-57 -12 -60 -7 -62 129 -4 245 -6 227 22 235 64 18
83 11 118 -41z m479 42 c6 -4 32 -77 57 -162 26 -85 49 -163 52 -172 4 -13 -4
-19 -33 -27 -61 -17 -70 -15 -77 24 l-7 35 -59 0 -59 0 -7 -36 c-7 -36 -7 -36
-48 -30 -22 4 -45 11 -50 16 -9 9 78 323 97 348 10 13 114 17 134 4z m519 -16
c13 -54 5 -61 -81 -66 -77 -5 -80 -6 -80 -30 0 -24 3 -25 73 -28 l72 -3 0 -39
0 -40 -75 0 c-73 0 -75 -1 -75 -25 0 -25 1 -25 84 -25 93 0 104 -8 90 -64 l-6
-26 -134 0 -134 0 0 170 c0 94 -1 173 -2 178 -4 10 70 19 174 20 85 2 88 1 94
-22z m264 -116 l0 -140 80 0 80 0 0 -45 0 -45 -128 0 -129 0 -6 107 c-4 58 -7
139 -7 179 0 80 -2 78 83 83 l27 1 0 -140z m418 131 c17 -10 116 -341 105
-352 -4 -4 -28 -9 -52 -11 -42 -3 -45 -2 -53 30 -8 31 -10 32 -67 32 l-59 0
-6 -36 c-7 -36 -7 -36 -49 -29 -23 4 -46 10 -50 15 -11 9 89 341 105 352 17
10 109 10 126 -1z m323 -83 l64 -91 5 83 c5 91 10 96 78 99 l22 1 0 -185 0
-184 -35 -7 c-19 -3 -41 -4 -49 -1 -7 3 -46 52 -85 108 l-71 103 0 -101 0
-101 -32 -4 c-71 -8 -68 -16 -68 182 l0 179 28 4 c77 12 75 13 143 -85z m667
15 l3 -73 59 0 60 0 0 64 c0 36 3 67 8 69 4 3 28 8 55 12 l47 7 0 -185 0 -186
-35 -7 c-58 -11 -65 -3 -65 71 l0 65 -65 0 -64 0 -3 -62 -3 -63 -52 -3 -53 -3
0 180 c0 178 0 180 23 184 12 3 36 4 52 3 l30 -1 3 -72z m834 50 c9 -16 40
-59 68 -98 l51 -70 -3 90 -2 89 39 8 c66 14 65 18 65 -181 l0 -179 -35 -6
c-20 -4 -44 -4 -53 -1 -9 3 -46 48 -82 100 -36 52 -68 95 -72 95 -5 0 -8 -42
-8 -94 l0 -94 -27 -4 c-63 -8 -63 -9 -65 133 -4 243 -6 222 22 230 55 15 85
10 102 -18z m538 -18 l0 -45 -80 0 -80 0 0 -30 0 -29 73 -3 72 -3 0 -35 0 -35
-72 -3 c-70 -3 -73 -4 -73 -27 0 -25 1 -25 85 -25 l85 0 0 -45 0 -45 -135 0
-135 0 -2 130 c-1 72 -2 151 -3 178 l0 47 45 6 c25 3 84 7 133 7 l87 2 0 -45z
m366 21 c12 -50 3 -61 -54 -64 l-52 -3 0 -138 0 -139 -32 -4 c-67 -7 -65 -10
-73 142 l-7 139 -52 3 c-55 3 -64 15 -52 64 l6 24 155 0 155 0 6 -24z m310 0
c13 -54 5 -61 -81 -66 -77 -5 -80 -6 -80 -30 0 -24 3 -25 73 -28 l72 -3 0 -39
0 -40 -75 0 c-73 0 -75 -1 -75 -25 0 -25 1 -25 84 -25 79 0 84 -1 90 -23 3
-12 3 -33 -1 -45 -5 -21 -9 -22 -139 -22 l-134 0 0 170 c0 94 0 173 0 178 -1
9 76 18 177 20 80 2 83 1 89 -22z m2229 -578 c69 -119 139 -211 198 -259 70
-57 76 -64 49 -50 -41 21 -147 134 -194 206 -53 81 -112 185 -105 185 2 0 26
-37 52 -82z m-5817 -339 c12 -5 22 -12 22 -17 0 -17 -22 -72 -28 -72 -4 1 -27
5 -52 10 -79 15 -126 -14 -60 -39 17 -6 44 -16 61 -23 18 -6 45 -22 60 -36 24
-19 29 -32 29 -67 0 -99 -102 -147 -236 -114 -54 14 -60 25 -40 72 l14 35 43
-14 c51 -18 114 -15 114 5 0 8 -30 26 -69 42 -38 15 -75 34 -83 42 -40 39 -30
124 19 160 46 34 137 41 206 16z m434 0 c24 -10 25 -14 17 -42 -13 -45 -21
-49 -72 -37 -57 12 -110 -2 -86 -24 8 -8 37 -21 66 -30 28 -10 63 -26 77 -37
50 -40 41 -130 -17 -171 -27 -19 -44 -23 -112 -23 -115 1 -141 21 -116 88 9
24 11 25 48 11 21 -7 57 -13 81 -14 35 0 42 3 42 19 0 15 -15 24 -62 41 -90
30 -118 57 -118 115 0 97 130 150 252 104z m1098 -15 c84 -49 105 -205 38
-289 -63 -80 -215 -87 -285 -13 -76 81 -67 237 17 300 52 39 166 40 230 2z
m-2607 -51 l35 -78 37 78 c40 83 41 83 118 71 l37 -7 0 -178 0 -177 -30 -7
c-16 -4 -39 -4 -50 0 -18 6 -20 15 -20 108 l-1 102 -30 -57 c-27 -53 -32 -58
-62 -58 -30 0 -35 5 -64 63 l-32 62 0 -106 -1 -106 -29 -6 c-15 -3 -38 -3 -50
0 -20 5 -21 10 -21 174 0 93 -1 172 -2 176 -4 9 44 20 93 22 36 1 37 0 72 -76z
m513 69 c17 -12 112 -346 100 -353 -6 -4 -30 -10 -53 -14 -42 -7 -42 -7 -49
29 l-6 36 -59 0 c-57 0 -59 -1 -67 -32 -8 -30 -12 -33 -46 -31 -67 4 -67 2
-12 188 28 94 55 173 61 177 5 4 35 8 65 8 30 0 60 -4 66 -8z m254 -176 l0
-184 -32 -4 c-69 -8 -68 -10 -70 133 -4 243 -6 222 22 230 14 4 37 7 53 8 l27
1 0 -184z m1046 176 c7 -4 33 -79 59 -167 27 -88 50 -165 52 -172 3 -7 -12
-16 -34 -22 -61 -17 -70 -15 -77 24 l-7 35 -58 0 c-57 0 -58 -1 -68 -32 -9
-31 -12 -33 -49 -30 -21 2 -43 7 -48 12 -11 11 83 331 102 348 17 13 110 16
128 4z m380 -7 c46 -19 67 -67 53 -120 -9 -30 -8 -40 7 -56 20 -22 22 -85 5
-118 -22 -41 -85 -61 -193 -61 l-98 0 0 179 c0 206 -11 188 113 190 48 1 91
-5 113 -14z m796 -23 c28 -28 33 -39 33 -82 0 -40 -5 -54 -29 -79 l-29 -30 41
-65 c39 -62 39 -64 19 -70 -12 -3 -38 -6 -58 -6 -35 0 -38 3 -70 65 -44 84
-59 84 -59 1 l0 -64 -32 -4 c-71 -8 -68 -16 -68 182 0 208 -13 189 132 187 85
-2 89 -3 120 -35z m-1688 -978 c61 -23 -40 -58 -244 -83 -301 -38 -474 -86
-715 -198 -131 -62 -215 -109 -358 -204 -389 -259 -587 -537 -587 -824 1 -153
40 -316 110 -456 96 -190 337 -396 578 -494 177 -72 435 -115 687 -115 410 0
736 51 1085 169 262 88 358 130 600 264 158 86 337 247 426 382 108 164 124
390 39 580 -73 167 -271 391 -450 511 -236 158 -528 254 -830 274 -172 12
-413 12 -520 1 -52 -6 -87 -5 -100 1 -13 8 -20 8 -23 -1 -5 -15 -39 -14 -45 2
-3 9 -7 9 -18 1 -8 -6 -28 -14 -45 -17 -18 -3 -44 -9 -59 -13 -23 -6 -26 -4
-19 7 5 8 9 18 9 24 0 15 149 51 263 64 162 19 465 25 588 11 150 -16 329 -55
443 -96 53 -20 112 -40 131 -46 55 -16 148 -66 235 -126 247 -169 403 -343
510 -567 82 -173 93 -386 29 -557 -58 -153 -205 -315 -415 -456 -113 -76 -477
-254 -636 -311 -214 -76 -285 -93 -588 -147 -144 -26 -166 -27 -520 -28 -348
-1 -376 0 -479 22 -283 59 -460 140 -661 303 -178 144 -334 393 -381 607 -21
98 -32 267 -23 345 10 80 73 246 121 315 197 289 686 615 1153 767 156 51 229
65 435 84 108 10 254 13 274 5z m-910 -683 c19 -16 22 -94 3 -109 -7 -6 -35
-12 -62 -14 -50 -3 -50 -3 -53 -40 -2 -21 -7 -38 -13 -38 -5 0 -9 48 -9 111
l0 111 59 -4 c33 -2 66 -10 75 -17z m206 4 c0 -12 -13 -15 -55 -15 l-55 0 0
-35 0 -35 50 0 c28 0 50 -4 50 -10 0 -5 -22 -10 -50 -10 l-50 0 0 -35 0 -35
55 0 c42 0 55 -3 55 -15 0 -12 -14 -15 -70 -15 l-70 0 0 103 c0 57 3 107 7
110 3 4 35 7 70 7 49 0 63 -3 63 -15z m178 -2 c2 -9 -10 -13 -40 -13 -24 0
-49 -5 -56 -12 -7 -7 -12 -39 -12 -75 0 -71 16 -88 76 -81 22 3 34 0 34 -8 0
-7 -15 -14 -32 -16 -28 -2 -34 -8 -36 -30 -2 -16 -9 -28 -18 -28 -17 0 -17 1
-5 33 8 21 6 26 -10 30 -24 7 -39 46 -39 107 0 60 13 97 37 103 32 9 96 2 101
-10z m183 -92 c21 -57 39 -105 39 -107 0 -2 -6 -4 -14 -4 -8 0 -19 14 -25 30
-9 28 -14 30 -56 30 -43 0 -48 -3 -58 -30 -6 -16 -17 -30 -24 -30 -18 0 -17 5
20 100 18 47 36 93 40 103 15 40 39 11 78 -92z m282 17 c19 -51 38 -101 42
-110 5 -12 2 -18 -8 -18 -8 0 -20 14 -27 30 -11 27 -17 30 -59 30 -43 0 -48
-3 -58 -30 -6 -16 -18 -30 -26 -30 -12 0 -7 22 24 101 22 56 42 106 45 110 15
25 35 0 67 -83z m221 86 c32 -12 14 -24 -37 -24 -29 0 -58 -5 -65 -12 -7 -7
-12 -38 -12 -69 0 -68 16 -89 66 -89 32 0 34 2 34 35 0 28 -4 35 -20 35 -11 0
-20 7 -20 15 0 10 11 15 35 15 l35 0 0 -60 0 -60 -58 0 c-83 0 -95 12 -100 98
-4 65 -2 73 21 96 26 26 82 35 121 20z m233 -20 c19 -26 18 -158 -3 -178 -20
-20 -126 -22 -142 -3 -17 20 -25 91 -18 142 9 55 28 67 100 61 33 -2 54 -9 63
-22z m214 9 c18 -18 15 -95 -4 -107 -13 -8 -13 -14 4 -53 16 -37 16 -43 3 -43
-9 0 -22 17 -31 40 -15 37 -19 40 -55 40 -38 0 -38 0 -38 -40 0 -22 -4 -40
-10 -40 -6 0 -10 44 -10 111 l0 111 65 -4 c36 -2 70 -9 76 -15z m200 -92 c21
-57 39 -105 39 -107 0 -2 -6 -4 -14 -4 -8 0 -19 14 -25 30 -9 28 -14 30 -56
30 -43 0 -48 -3 -58 -30 -6 -16 -17 -30 -24 -30 -18 0 -17 5 20 100 18 47 36
93 40 103 15 40 39 11 78 -92z m-2247 -268 c-19 -37 -18 -150 1 -186 13 -26
13 -31 0 -50 -21 -30 -21 -165 1 -195 12 -17 12 -22 2 -22 -46 0 -66 155 -29
216 18 29 18 33 3 48 -26 25 -24 166 2 195 27 30 37 26 20 -6z m481 0 c24 -36
24 -150 0 -186 -15 -23 -15 -28 -1 -56 33 -64 11 -211 -32 -211 -10 0 -10 5 2
22 21 30 22 166 2 194 -13 17 -13 22 2 44 20 31 24 172 4 192 -14 14 -16 28
-3 28 5 0 17 -12 26 -27z m2393 11 c20 -8 50 -27 65 -42 119 -113 84 -314 -65
-376 -44 -19 -122 -21 -167 -5 -23 8 -44 8 -82 -1 -27 -7 -53 -10 -56 -7 -3 3
0 28 6 54 10 40 9 59 -4 108 -23 88 -1 167 62 227 59 56 164 75 241 42z
m-2704 -10 c21 -20 20 -63 0 -71 -15 -5 -15 -7 0 -15 19 -11 21 -59 4 -76 -18
-18 -118 -16 -118 3 0 11 12 15 51 15 47 0 50 2 47 23 -2 17 -11 23 -36 25
-40 4 -38 25 4 32 21 4 29 11 29 25 0 17 -8 20 -47 23 -45 3 -57 10 -41 25 13
14 92 7 107 -9z m204 0 c25 -17 29 -46 9 -66 -12 -11 -12 -16 0 -26 18 -17 17
-47 -3 -66 -18 -18 -85 -21 -115 -6 -22 12 -25 53 -6 72 12 10 12 15 0 26 -33
34 3 82 62 82 17 0 41 -7 53 -16z m393 6 c16 -9 19 -22 19 -80 0 -85 -12 -100
-81 -100 -36 0 -49 4 -49 14 0 11 14 16 48 18 40 3 47 6 50 25 3 20 0 21 -31
16 -52 -8 -77 10 -77 57 0 27 6 42 18 49 22 14 78 14 103 1z m203 -6 c11 -11
16 -35 16 -79 0 -80 -13 -95 -81 -95 -36 0 -49 4 -49 14 0 11 14 16 48 18 40
3 47 6 50 25 3 20 0 21 -31 16 -52 -8 -77 10 -77 57 0 27 6 42 18 49 26 16 89
13 106 -5z m197 6 c16 -9 19 -22 19 -80 0 -85 -12 -100 -81 -100 -36 0 -49 4
-49 14 0 11 14 16 48 18 40 3 47 6 50 25 3 20 0 21 -31 16 -52 -8 -77 10 -77
57 0 27 6 42 18 49 22 14 78 14 103 1z m190 0 c19 -11 26 -54 11 -77 -4 -6
-26 -19 -50 -28 -59 -24 -56 -45 8 -45 38 0 50 -4 50 -15 0 -12 -14 -15 -66
-15 l-65 0 3 38 c3 33 8 39 48 59 63 30 62 57 -2 61 -45 3 -57 10 -41 25 10
11 82 8 104 -3z m207 -7 c2 -9 -9 -13 -35 -13 -41 0 -63 -14 -63 -39 0 -13 12
-16 52 -16 l53 0 3 -38 c2 -21 -2 -45 -9 -53 -14 -17 -100 -19 -117 -2 -7 7
-12 40 -12 79 0 59 3 70 23 84 26 18 98 17 105 -2z m312 2 c0 -11 -12 -15 -45
-15 -41 0 -45 -2 -45 -25 0 -22 4 -25 38 -25 46 0 62 -14 62 -55 0 -44 -16
-55 -77 -55 -40 0 -53 4 -53 14 0 11 14 16 48 18 39 3 47 6 47 23 0 17 -8 20
-47 23 l-48 3 0 55 0 54 60 0 c47 0 60 -3 60 -15z m160 9 c0 -4 -13 -29 -30
-56 -16 -26 -30 -51 -30 -54 0 -3 12 -4 27 -2 19 2 29 10 33 26 7 31 24 29 28
-3 2 -14 8 -25 13 -25 5 0 9 -7 9 -15 0 -8 -4 -15 -10 -15 -5 0 -10 -9 -10
-20 0 -13 -7 -20 -20 -20 -13 0 -20 7 -20 20 0 17 -7 20 -45 20 -32 0 -45 4
-45 14 0 24 71 136 86 136 8 0 14 -3 14 -6z m220 -13 c0 -34 -68 -171 -84
-171 -9 0 -16 2 -16 4 0 2 16 38 35 80 l34 76 -49 0 c-38 0 -50 4 -50 15 0 12
14 15 65 15 58 0 65 -2 65 -19z m150 13 c0 -4 -13 -29 -30 -56 -16 -26 -30
-51 -30 -54 0 -3 12 -4 27 -2 19 2 29 10 33 26 7 31 24 29 28 -3 2 -14 8 -25
13 -25 5 0 9 -7 9 -15 0 -8 -4 -15 -10 -15 -5 0 -10 -9 -10 -20 0 -13 -7 -20
-20 -20 -13 0 -20 7 -20 20 0 17 -7 20 -45 20 -32 0 -45 4 -45 14 0 24 71 136
86 136 8 0 14 -3 14 -6z m-710 -110 c0 -11 -8 -14 -32 -12 -46 4 -49 28 -4 28
26 0 36 -4 36 -16z m-1532 -140 c25 -18 29 -46 7 -67 -13 -13 -13 -16 0 -21
18 -7 20 -57 3 -74 -18 -18 -118 -16 -118 2 0 11 14 16 48 18 39 3 47 6 47 23
0 15 -8 21 -32 23 -42 4 -46 32 -4 32 16 0 31 6 33 13 10 26 -4 37 -48 37 -41
0 -53 8 -37 23 12 13 79 7 101 -9z m203 6 c21 -12 26 -59 9 -76 -8 -8 -6 -15
5 -24 19 -16 19 -44 -1 -64 -19 -19 -104 -22 -122 -4 -18 18 -15 68 4 75 15 5
15 7 0 15 -20 11 -21 52 0 72 18 18 76 21 105 6z m403 -6 c11 -11 16 -35 16
-79 0 -80 -13 -95 -81 -95 -37 0 -49 4 -49 15 0 11 12 15 44 15 31 0 46 5 50
16 11 29 6 32 -34 27 -25 -4 -46 -1 -55 7 -21 18 -20 86 3 99 26 16 89 13 106
-5z m200 0 c11 -11 16 -35 16 -79 0 -80 -13 -95 -81 -95 -37 0 -49 4 -49 15 0
11 12 15 44 15 31 0 46 5 50 16 11 29 6 32 -34 27 -25 -4 -46 -1 -55 7 -21 18
-20 86 3 99 26 16 89 13 106 -5z m200 0 c11 -11 16 -35 16 -79 0 -80 -13 -95
-81 -95 -37 0 -49 4 -49 15 0 11 12 15 44 15 31 0 46 5 50 16 11 29 6 32 -34
27 -25 -4 -46 -1 -55 7 -21 18 -20 86 3 99 26 16 89 13 106 -5z m196 1 c0 -11
-12 -15 -45 -15 -41 0 -45 -2 -45 -25 0 -22 4 -25 38 -25 46 0 62 -14 62 -55
0 -44 -16 -55 -77 -55 -40 0 -53 4 -53 14 0 11 14 16 48 18 39 3 47 6 47 23 0
17 -8 20 -47 23 l-48 3 0 55 0 54 60 0 c47 0 60 -3 60 -15z m191 5 c16 -9 19
-22 19 -83 0 -44 -5 -78 -12 -85 -7 -7 -33 -12 -58 -12 -25 0 -51 5 -58 12
-18 18 -16 143 4 162 18 18 76 21 105 6z m319 -9 c0 -31 -70 -171 -85 -171
-21 0 -19 13 15 80 17 33 30 64 30 70 0 5 -20 10 -45 10 -33 0 -45 4 -45 15 0
12 14 15 65 15 57 0 65 -2 65 -19z m150 14 c0 -3 -13 -27 -30 -53 -36 -59 -36
-62 -6 -62 19 0 26 7 31 30 4 17 11 30 16 30 5 0 9 -13 9 -30 0 -20 5 -30 15
-30 8 0 15 -7 15 -15 0 -8 -7 -15 -15 -15 -8 0 -15 -9 -15 -20 0 -11 -7 -20
-15 -20 -8 0 -15 9 -15 20 0 17 -7 20 -45 20 -61 0 -60 14 2 113 13 20 30 37
38 37 8 0 15 -2 15 -5z m220 -10 c0 -11 -12 -15 -45 -15 -41 0 -45 -2 -45 -25
0 -22 4 -25 38 -25 46 0 62 -14 62 -55 0 -44 -16 -55 -77 -55 -40 0 -53 4 -53
14 0 11 14 16 48 18 39 3 47 6 47 23 0 17 -8 20 -47 23 l-48 3 0 55 0 54 60 0
c47 0 60 -3 60 -15z m160 9 c0 -4 -14 -31 -31 -60 l-30 -54 30 0 c24 0 30 5
33 25 2 14 8 26 13 26 6 0 11 -12 13 -26 2 -14 8 -25 13 -25 5 0 9 -7 9 -15 0
-8 -4 -15 -10 -15 -5 0 -10 -9 -10 -20 0 -11 -7 -20 -15 -20 -8 0 -15 9 -15
20 0 17 -7 20 -50 20 -31 0 -50 4 -50 12 0 21 74 138 87 138 7 0 13 -3 13 -6z
m-700 -109 c0 -10 -11 -15 -35 -15 -24 0 -35 5 -35 15 0 10 11 15 35 15 24 0
35 -5 35 -15z m-3653 -4172 c-3 -10 -5 -2 -5 17 0 19 2 27 5 18 2 -10 2 -26 0
-35z m21 -148 c0 -22 -3 -18 -9 15 -4 25 -7 61 -7 80 1 29 2 26 8 -15 5 -27 8
-63 8 -80z m9 -97 c-2 -13 -4 -3 -4 22 0 25 2 35 4 23 2 -13 2 -33 0 -45z m21
-138 c0 -16 -3 -10 -9 15 -4 22 -8 54 -7 70 0 22 3 19 9 -15 4 -25 7 -56 7
-70z m9 -67 c-3 -10 -5 -4 -5 12 0 17 2 24 5 18 2 -7 2 -21 0 -30z m10 -55
c-3 -7 -5 -2 -5 12 0 14 2 19 5 13 2 -7 2 -19 0 -25z"/>
<path d="M5980 9443 c-25 -10 -30 -25 -30 -89 0 -78 27 -114 88 -114 22 0 44
6 49 13 18 21 24 85 13 127 -15 54 -68 82 -120 63z"/>
<path d="M1601 9390 c-7 -25 -14 -53 -17 -62 -4 -15 1 -18 29 -18 l35 0 -13
43 c-7 23 -15 51 -17 62 -3 14 -8 7 -17 -25z"/>
<path d="M3282 9379 c-16 -69 -16 -69 18 -69 17 0 30 3 30 6 0 9 -31 114 -34
114 -1 0 -8 -23 -14 -51z"/>
<path d="M4487 9391 c-3 -16 -9 -40 -13 -55 -6 -24 -4 -26 25 -26 35 0 36 2
19 65 -14 52 -23 57 -31 16z"/>
<path d="M5389 8513 c-20 -5 -29 -33 -29 -95 0 -64 36 -108 88 -108 53 0 62
10 69 72 10 100 -43 154 -128 131z"/>
<path d="M3368 8442 l-16 -62 34 0 c32 0 34 2 28 28 -4 15 -12 42 -19 61 l-12
35 -15 -62z"/>
<path d="M4672 8451 c-16 -71 -16 -71 19 -71 29 0 30 1 24 33 -4 17 -13 45
-19 61 l-12 29 -12 -52z"/>
<path d="M5017 8513 c-4 -3 -7 -17 -7 -30 0 -21 5 -23 45 -23 38 0 45 3 45 20
0 29 -62 54 -83 33z"/>
<path d="M5010 8349 c0 -30 1 -30 47 -27 37 2 49 7 51 22 5 24 -14 36 -60 36
-36 0 -38 -2 -38 -31z"/>
<path d="M5787 8513 c-4 -3 -7 -22 -7 -40 0 -33 1 -34 38 -31 32 3 37 7 40 30
3 22 -2 30 -23 38 -31 12 -39 12 -48 3z"/>
<path d="M3222 6848 c3 -36 7 -44 27 -46 12 -2 34 -1 48 3 21 5 24 11 21 43
-3 37 -3 37 -51 40 l-48 3 3 -43z"/>
<path d="M3827 6842 c-23 -58 -22 -62 19 -62 39 0 39 2 10 75 l-12 29 -17 -42z"/>
<path d="M4116 6846 c-24 -57 -21 -66 19 -66 19 0 35 1 35 3 0 1 -9 24 -19 52
l-19 50 -16 -39z"/>
<path d="M4506 6875 c-12 -33 -6 -123 10 -139 19 -19 64 -21 88 -3 14 10 16
25 14 82 l-3 70 -51 3 c-40 2 -53 -1 -58 -13z"/>
<path d="M4730 6850 l0 -41 46 3 c88 6 88 70 0 76 l-46 3 0 -41z"/>
<path d="M4977 6842 c-23 -58 -22 -62 19 -62 39 0 39 2 10 75 l-12 29 -17 -42z"/>
<path d="M3088 6518 c-9 -25 4 -38 37 -38 33 0 46 13 38 38 -3 6 -20 12 -38
12 -18 0 -35 -6 -37 -12z"/>
<path d="M3084 6435 c-10 -24 9 -37 47 -33 26 2 34 8 34 23 0 16 -8 21 -38 23
-27 2 -39 -1 -43 -13z"/>
<path d="M3484 6516 c-12 -30 4 -47 38 -44 28 2 33 7 33 28 0 21 -5 26 -33 28
-22 2 -34 -2 -38 -12z"/>
<path d="M3684 6516 c-12 -30 4 -47 38 -44 28 2 33 7 33 28 0 21 -5 26 -33 28
-22 2 -34 -2 -38 -12z"/>
<path d="M3884 6516 c-12 -30 4 -47 38 -44 28 2 33 7 33 28 0 21 -5 26 -33 28
-22 2 -34 -2 -38 -12z"/>
<path d="M4292 6452 c-17 -3 -22 -9 -20 -25 2 -17 11 -23 41 -25 33 -3 37 -1
37 21 0 26 -18 35 -58 29z"/>
<path d="M3084 6275 c-9 -23 5 -35 42 -35 30 0 34 3 34 25 0 22 -4 25 -35 25
-22 0 -38 -6 -41 -15z"/>
<path d="M3087 6203 c-4 -3 -7 -15 -7 -25 0 -14 8 -18 40 -18 36 0 40 3 40 25
0 22 -4 25 -33 25 -19 0 -37 -3 -40 -7z"/>
<path d="M3484 6276 c-12 -30 4 -47 38 -44 28 2 33 7 33 28 0 21 -5 26 -33 28
-22 2 -34 -2 -38 -12z"/>
<path d="M3684 6276 c-12 -30 4 -47 38 -44 28 2 33 7 33 28 0 21 -5 26 -33 28
-22 2 -34 -2 -38 -12z"/>
<path d="M3884 6276 c-12 -30 4 -47 38 -44 28 2 33 7 33 28 0 21 -5 26 -33 28
-22 2 -34 -2 -38 -12z"/>
<path d="M4274 6277 c-3 -8 -4 -36 -2 -63 3 -49 3 -49 38 -49 l35 0 0 60 0 60
-33 3 c-21 2 -34 -2 -38 -11z"/>
<path d="M7450 4039 c0 -44 18 -59 70 -59 28 0 50 3 49 8 0 4 -18 22 -41 40
-47 37 -78 42 -78 11z"/>
<path d="M8660 3960 c0 -5 5 -10 11 -10 5 0 7 5 4 10 -3 6 -8 10 -11 10 -2 0
-4 -4 -4 -10z"/>
<path d="M9234 3956 c-17 -6 -46 -23 -65 -37 -32 -25 -36 -35 -38 -106 -1 -17
-7 -23 -23 -23 -28 0 -20 -6 19 -13 26 -5 33 -3 38 13 4 11 17 23 30 26 25 6
66 59 84 107 19 51 14 55 -45 33z"/>
<path d="M7320 3919 c-7 -11 -24 -25 -40 -30 -17 -6 -31 -20 -34 -35 -5 -19
-13 -24 -37 -24 -30 0 -121 -41 -146 -66 -8 -8 -32 -17 -54 -20 -23 -4 -38
-11 -36 -18 3 -6 11 -9 18 -7 8 2 31 8 52 13 22 4 58 18 80 30 90 46 101 48
117 18 14 -26 33 -25 45 2 7 16 22 25 47 29 21 3 40 4 42 1 3 -2 -6 -19 -20
-37 -16 -22 -21 -34 -13 -37 7 -2 13 -15 14 -28 2 -24 25 -42 25 -19 0 6 12
23 27 37 24 22 25 24 5 18 -30 -10 -40 18 -17 44 22 25 51 26 64 3 7 -12 10
-14 11 -4 0 25 30 -9 30 -35 0 -31 24 -31 38 0 6 14 21 26 34 28 21 3 23 7 20
56 -2 31 2 60 9 68 9 11 7 14 -15 14 -17 0 -36 -11 -55 -32 -31 -34 -26 -35
-116 17 -71 40 -81 42 -95 14z"/>
<path d="M7790 3911 c0 -31 13 -61 25 -61 17 0 48 48 41 65 -7 20 -66 16 -66
-4z"/>
<path d="M8125 3890 c3 -5 16 -10 28 -10 18 0 19 2 7 10 -20 13 -43 13 -35 0z"/>
<path d="M8203 3853 c-19 -7 -16 -27 7 -48 26 -24 13 -37 -28 -29 -28 6 -31
10 -26 31 6 23 4 25 -17 18 -52 -16 -60 -34 -29 -67 26 -28 25 -40 -2 -36 -15
2 -24 11 -26 26 -2 14 -10 22 -23 22 -28 0 -78 -59 -79 -94 0 -25 -3 -28 -27
-23 -16 3 -46 12 -68 20 -38 15 -40 14 -43 -4 -2 -10 -10 -19 -18 -19 -11 0
-13 9 -8 40 l7 40 -37 0 c-31 0 -38 -4 -47 -27 -12 -32 -10 -38 11 -38 8 0 23
-16 33 -35 16 -33 16 -36 0 -47 -16 -12 -16 -15 1 -49 15 -33 16 -38 1 -54 -9
-10 -15 -30 -13 -46 2 -24 -1 -30 -19 -32 -30 -4 -29 -12 5 -44 34 -33 72 -83
72 -96 0 -5 -16 -20 -35 -33 -35 -24 -41 -43 -14 -46 63 -7 159 -28 159 -35 0
-4 -6 -8 -14 -8 -30 0 -26 -20 6 -36 19 -8 41 -29 51 -46 13 -23 22 -29 39
-24 14 3 29 -1 40 -11 14 -13 21 -14 30 -5 7 7 20 12 30 12 10 0 18 5 18 10 0
6 -8 10 -18 10 -10 0 -27 7 -38 16 -18 15 -18 15 10 11 16 -3 39 -1 50 3 12 5
30 11 41 15 14 4 16 8 7 14 -10 6 -8 14 8 33 11 15 20 33 20 41 0 9 5 19 11
22 6 5 4 12 -8 20 -17 12 -16 14 9 25 23 11 29 10 43 -4 18 -18 54 -13 67 9 4
7 22 18 40 25 18 6 43 17 55 23 26 12 42 2 25 -15 -7 -7 -12 -23 -12 -35 0
-13 -7 -35 -16 -48 -9 -13 -13 -29 -9 -35 4 -6 -4 -10 -18 -10 -35 0 -60 -41
-47 -76 6 -15 13 -49 15 -76 4 -39 1 -50 -13 -56 -10 -4 -18 -19 -19 -37 0
-16 -5 -50 -10 -75 -16 -86 -9 -201 15 -245 13 -22 25 -57 28 -77 5 -31 11
-38 30 -38 29 0 88 81 80 108 -4 11 2 27 14 40 17 18 25 20 47 11 22 -8 39 -6
86 13 33 13 61 28 62 33 2 6 6 22 9 38 5 23 11 27 40 27 39 0 53 26 26 47 -13
10 -11 13 10 21 65 24 87 28 113 19 15 -5 35 -6 43 -3 13 5 13 10 -5 33 -12
14 -19 34 -16 43 4 13 -5 24 -30 39 -46 27 -61 61 -34 80 10 7 19 20 19 27 0
17 5 17 31 3 16 -8 25 -7 40 7 14 13 41 19 101 21 66 4 87 8 108 26 28 24 29
47 3 47 -14 0 -14 3 2 20 17 19 19 19 48 2 16 -9 41 -33 56 -52 14 -19 32 -39
38 -43 7 -4 13 -14 13 -21 0 -7 9 -21 20 -31 11 -10 20 -26 20 -36 0 -10 4
-20 9 -23 14 -9 0 -56 -22 -71 -12 -8 -33 -15 -47 -15 -14 0 -35 -7 -47 -15
-12 -9 -24 -11 -27 -6 -4 5 0 11 6 14 7 2 11 7 8 10 -3 3 -22 -2 -42 -10 -40
-16 -51 -43 -18 -43 11 0 20 -4 20 -10 0 -5 12 -10 26 -10 20 0 24 -3 16 -13
-15 -18 31 -61 57 -52 11 3 22 1 26 -5 3 -5 17 -10 31 -10 22 0 23 -2 14 -21
-13 -23 -6 -69 10 -69 11 0 14 -33 4 -43 -4 -4 -8 -22 -10 -41 -2 -19 -14 -53
-28 -75 -15 -22 -26 -47 -26 -55 0 -8 -4 -17 -10 -21 -14 -9 -60 6 -60 19 0
23 -35 43 -58 33 -12 -6 -22 -14 -22 -19 0 -4 -5 -8 -11 -8 -6 0 -9 10 -6 23
2 12 1 33 -3 47 -5 14 -8 18 -9 9 -1 -8 -14 -36 -31 -62 -17 -28 -27 -53 -23
-63 7 -18 -30 -55 -107 -107 -25 -16 -54 -38 -65 -47 -11 -9 -43 -24 -72 -34
-85 -26 -246 -106 -278 -136 -16 -16 -42 -32 -56 -35 -24 -6 -26 -4 -23 17 8
42 -10 53 -81 53 -36 0 -65 3 -65 6 0 8 37 19 66 19 12 0 25 10 32 25 11 23 9
29 -13 50 -13 14 -31 25 -40 25 -21 0 -48 27 -41 39 4 5 8 35 10 65 4 41 2 55
-7 50 -7 -3 -4 1 5 9 11 8 15 21 11 35 -4 17 -12 21 -41 19 -31 -2 -37 1 -38
20 -1 12 -4 40 -8 62 -5 32 -3 42 11 50 17 10 17 12 1 21 -12 8 -18 24 -18 50
0 22 -4 40 -10 40 -5 0 -10 10 -10 23 0 12 -7 31 -15 41 -8 11 -15 32 -15 47
0 45 -10 59 -41 59 -20 0 -29 5 -29 16 0 23 -117 17 -139 -8 -20 -24 -45 -24
-37 0 4 10 -3 6 -19 -10 -24 -26 -84 -41 -70 -18 4 6 -6 7 -25 4 -37 -8 -41
11 -5 28 24 11 25 34 0 24 -9 -3 -12 3 -10 19 1 14 -2 22 -6 19 -5 -3 -9 -11
-9 -19 0 -7 -12 -16 -27 -20 -15 -3 -41 -17 -57 -31 -92 -74 -91 -73 -77 -83
8 -5 12 -18 8 -30 -3 -11 1 -25 9 -32 8 -6 14 -20 14 -30 0 -13 7 -19 22 -19
28 0 88 -46 88 -69 0 -17 29 -51 43 -51 4 0 7 9 7 20 0 14 7 20 21 20 19 0 21
-4 16 -34 -3 -18 -1 -38 4 -43 11 -11 0 -73 -13 -73 -5 0 -6 -4 -3 -10 12 -19
25 -10 25 18 0 16 9 39 20 52 15 17 20 19 20 8 0 -15 20 -28 41 -28 6 0 21 12
35 27 14 15 36 29 50 30 27 4 28 -4 16 -87 -7 -42 -9 -45 -37 -46 -129 -3
-135 -4 -135 -19 0 -10 10 -15 30 -15 17 0 30 -5 30 -12 0 -7 5 -5 11 5 12 20
35 23 42 5 4 -9 8 -10 14 -2 4 6 25 14 46 17 31 5 36 3 28 -7 -6 -7 -8 -16 -4
-20 4 -4 1 -11 -7 -16 -24 -15 -36 -11 -14 5 17 13 15 14 -31 8 -55 -6 -78
-19 -52 -29 9 -3 17 -10 17 -16 0 -5 -4 -6 -10 -3 -5 3 -10 2 -10 -4 0 -18 79
-53 97 -43 21 12 53 3 53 -14 0 -8 -7 -17 -15 -20 -12 -5 -13 -10 -4 -20 9
-11 8 -15 -5 -20 -9 -3 -13 -11 -9 -18 4 -6 -1 -5 -10 3 -14 11 -18 11 -24 -4
-3 -10 -2 -35 4 -57 9 -34 8 -38 -8 -38 -9 0 -19 6 -21 13 -3 7 -24 13 -54 13
-27 1 -52 2 -56 3 -12 2 -68 94 -68 113 0 10 -4 18 -10 18 -5 0 -10 8 -10 18
0 14 2 15 10 2 8 -12 10 -12 9 5 0 21 -17 67 -18 51 -1 -12 -41 34 -41 48 0 6
-4 6 -11 -1 -8 -8 -7 -17 5 -34 22 -32 20 -38 -11 -34 -16 2 -31 4 -35 4 -4 1
-5 9 -2 19 6 18 0 12 -48 -51 -23 -29 -60 -32 -105 -8 -19 10 -22 9 -17 -4 4
-8 1 -15 -4 -15 -14 0 -95 54 -112 75 -7 8 -27 15 -44 16 -17 0 -25 3 -18 6
18 7 15 33 -4 33 -9 0 -18 9 -21 20 -3 11 -10 20 -15 20 -5 0 -7 -4 -4 -8 2
-4 -4 -13 -15 -20 -10 -7 -19 -8 -19 -3 0 6 4 12 9 15 14 9 20 60 9 74 -6 6
-8 12 -4 12 10 0 -24 63 -45 83 -20 19 -40 24 -21 5 35 -35 -22 -30 -76 7 -20
14 -48 25 -62 25 l-25 -1 28 -22 c15 -13 27 -26 27 -30 0 -14 -44 -7 -62 10
-16 14 -18 14 -18 1 0 -9 -7 -29 -15 -44 -8 -16 -12 -37 -9 -46 7 -22 -19 -24
-56 -5 -31 15 -70 11 -70 -8 0 -9 6 -12 15 -9 8 4 15 1 15 -6 0 -6 -8 -10 -17
-8 -10 1 -23 -1 -30 -5 -8 -5 -9 0 0 23 13 33 4 49 -17 31 -11 -9 -15 -8 -20
5 -8 20 -10 18 38 38 l38 16 -40 47 c-33 40 -38 51 -28 66 9 15 7 21 -9 32
-37 26 -45 36 -39 46 3 5 0 17 -7 25 -7 9 -13 32 -14 52 0 33 -3 37 -25 37
-23 0 -25 -4 -26 -50 0 -27 -4 -59 -8 -70 -5 -15 -1 -22 16 -30 31 -14 35 -49
7 -69 l-23 -16 23 -24 c13 -14 29 -22 37 -19 8 3 14 -1 14 -10 0 -8 6 -17 13
-20 14 -5 -36 -57 -56 -57 -8 0 -8 3 0 11 8 8 8 18 1 35 -14 30 -28 31 -28 2
l-1 -23 -19 23 c-11 13 -21 18 -25 12 -4 -7 -12 -7 -24 0 -14 7 -23 5 -35 -9
-21 -23 -20 -37 2 -46 16 -6 16 -7 -1 -17 -10 -5 -29 -7 -43 -4 -28 7 -33 36
-6 36 16 1 16 1 0 11 -10 5 -18 19 -18 31 0 16 -5 19 -26 15 -18 -3 -24 -1
-20 9 6 16 -10 19 -19 4 -5 -8 -11 -7 -21 1 -8 6 -17 9 -21 6 -3 -4 -15 0 -27
8 -32 23 -43 18 -48 -21 -4 -35 -3 -36 24 -30 21 4 28 2 28 -9 0 -10 10 -15
28 -16 l27 0 -24 -10 c-24 -9 -80 3 -109 25 -11 8 -11 11 0 19 10 7 9 8 -3 4
-9 -3 -22 0 -28 6 -8 8 -16 6 -29 -6 -23 -21 -90 -22 -112 -2 -14 13 -23 13
-46 4 -16 -6 -41 -12 -56 -13 -23 -1 -27 2 -23 21 3 18 -3 24 -30 32 -18 5
-43 19 -55 31 -21 21 -24 21 -35 7 -23 -32 -58 -30 -131 9 -38 20 -74 43 -80
50 -9 11 -18 10 -50 -7 -21 -11 -38 -24 -36 -29 1 -6 -12 -10 -29 -10 -17 0
-28 4 -24 10 3 6 1 10 -6 10 -7 0 -2 11 11 25 18 19 34 25 67 25 24 0 43 5 43
11 0 6 -18 9 -45 8 -24 -2 -47 0 -51 4 -4 4 -27 7 -51 7 -32 0 -43 4 -43 15 0
10 -11 15 -37 16 -21 1 -83 3 -138 5 -55 1 -107 4 -115 5 -25 5 -130 -13 -130
-22 0 -4 -23 -5 -51 -2 -46 5 -51 4 -47 -13 2 -10 16 -25 31 -32 23 -11 26
-16 16 -28 -6 -8 -22 -14 -35 -14 -25 0 -30 9 -15 25 6 6 3 18 -8 31 -19 24
-123 47 -208 45 -36 -1 -53 3 -53 12 0 9 -2 9 -8 0 -5 -7 -28 -16 -53 -19 -41
-6 -48 -4 -66 20 -19 23 -24 25 -48 16 -15 -6 -41 -22 -57 -35 -30 -26 -72
-33 -83 -15 -8 14 -45 13 -45 -1 0 -6 9 -13 20 -16 48 -13 -9 -69 -59 -58 -20
4 -35 0 -56 -16 -25 -20 -26 -23 -10 -29 15 -5 13 -10 -17 -28 -19 -12 -44
-22 -55 -22 -14 0 -25 -11 -34 -31 -12 -29 -11 -33 10 -50 13 -11 19 -19 14
-19 -5 0 -13 3 -16 7 -15 14 -60 11 -90 -8 -36 -21 -47 -24 -47 -9 0 5 12 13
28 16 15 4 33 11 40 17 13 10 54 88 49 93 -1 1 -24 -2 -51 -7 -56 -10 -75 -30
-76 -77 0 -41 -17 -39 -45 6 -25 39 -53 42 -61 5 -3 -16 -7 -33 -9 -39 -2 -6
-24 -17 -49 -24 -32 -9 -61 -27 -91 -58 -25 -25 -45 -48 -45 -52 0 -6 -45 -30
-57 -30 -3 0 -3 7 1 15 6 18 -11 19 -49 5 -22 -8 -30 -6 -48 14 -26 27 -63 41
-72 26 -3 -6 3 -10 14 -10 12 0 21 -4 21 -9 0 -15 -18 -23 -25 -11 -10 17 -32
11 -38 -10 -3 -12 -14 -20 -25 -20 -12 0 -27 -9 -35 -20 -7 -11 -29 -26 -49
-34 -34 -15 -147 -85 -198 -124 -39 -30 -87 -52 -113 -52 -13 0 -32 -8 -43
-18 -10 -9 -32 -27 -47 -39 l-28 -22 43 -11 c24 -7 77 -27 118 -46 106 -47
157 -64 196 -64 37 0 40 6 22 45 -17 38 2 71 49 85 52 15 203 24 183 10 -8 -5
-35 -10 -60 -10 l-45 0 29 -19 29 -19 -29 -4 c-37 -4 -44 -33 -10 -42 16 -4
39 1 65 15 23 12 53 19 73 17 l33 -3 0 -59 c-1 -38 -5 -61 -13 -64 -7 -2 -12
-8 -12 -12 0 -5 15 -1 33 9 33 19 107 27 107 11 0 -27 -121 -80 -143 -62 -8 7
-18 6 -31 -4 -11 -8 -31 -14 -45 -14 -14 0 -46 -7 -71 -16 -25 -9 -59 -14 -75
-11 -21 3 -38 -1 -54 -14 -18 -14 -19 -19 -7 -19 19 0 21 -11 4 -28 -6 -6 -8
-15 -4 -19 10 -11 27 19 22 40 -5 20 -4 20 29 5 30 -13 33 -34 5 -43 -19 -6
-28 -25 -33 -74 -2 -19 3 -25 26 -28 22 -3 27 0 27 18 0 17 3 19 13 10 10 -8
17 -7 25 1 9 9 15 9 24 0 9 -9 7 -13 -5 -18 -23 -8 -21 -26 3 -47 14 -12 20
-29 20 -57 0 -29 4 -40 15 -40 8 0 15 3 15 8 0 4 7 15 15 26 12 16 16 17 35 3
18 -12 19 -16 5 -27 -21 -18 -19 -25 10 -27 58 -6 65 -8 65 -20 0 -17 31 -17
56 1 11 8 43 16 72 17 45 2 54 0 72 -24 12 -15 18 -32 15 -39 -4 -7 2 -4 12 8
10 12 28 26 39 32 21 11 71 5 80 -9 8 -13 35 -11 68 6 39 21 44 19 51 -18 4
-17 12 -45 18 -60 10 -24 17 -27 47 -25 26 2 36 8 38 23 9 55 49 85 69 51 4
-8 17 -15 28 -18 11 -2 21 -11 23 -21 3 -13 -3 -17 -23 -17 -33 0 -62 -33 -71
-79 -5 -26 -3 -36 10 -43 9 -5 14 -13 11 -19 -4 -5 5 -9 19 -9 14 0 28 5 32
11 7 11 55 8 87 -6 17 -7 18 -6 6 13 -10 17 -10 24 4 46 15 22 25 26 69 26
l51 0 -6 -35 c-3 -19 -2 -37 3 -40 10 -6 70 71 70 90 0 30 75 34 90 4 16 -28
-16 -80 -55 -91 -32 -8 -75 -62 -75 -94 0 -11 3 -15 8 -8 4 6 17 14 28 18 12
4 24 16 27 26 4 16 14 20 46 20 36 0 48 6 85 44 44 43 75 58 131 60 17 0 36 9
43 18 19 26 82 25 82 -1 0 -20 39 -51 64 -51 13 0 51 -59 43 -67 -12 -12 -97
-29 -108 -22 -8 5 -27 9 -42 9 -23 0 -27 -3 -22 -19 4 -13 0 -23 -11 -29 -22
-12 -14 -45 14 -57 26 -11 27 -23 7 -61 -20 -39 -19 -64 3 -64 35 0 60 12 72
35 7 12 23 29 36 36 13 6 26 20 30 31 3 10 10 18 16 18 5 0 7 -7 4 -16 -9 -22
29 -104 49 -104 8 0 24 5 35 12 15 10 22 9 38 -6 15 -13 29 -16 55 -11 31 6
39 3 64 -25 76 -87 86 -92 143 -64 66 33 170 25 156 -12 -4 -11 -1 -14 13 -9
26 8 51 -4 51 -25 0 -10 -14 -30 -32 -44 -37 -29 -34 -38 13 -36 19 1 80 2
136 3 88 2 103 4 107 20 7 28 51 21 120 -21 42 -25 52 -46 39 -74 -21 -43 -22
-68 -5 -69 34 -3 47 4 96 42 27 22 61 42 75 45 14 3 36 10 49 15 13 5 27 9 32
9 16 0 11 -61 -7 -102 -15 -31 -22 -37 -40 -33 -15 4 -46 -10 -101 -45 -54
-34 -89 -50 -113 -50 -29 0 -47 -13 -121 -83 -47 -45 -89 -93 -93 -107 -4 -14
-26 -43 -50 -65 -23 -22 -50 -54 -58 -71 -9 -17 -23 -36 -31 -43 -31 -26 -15
-31 89 -31 102 0 117 4 94 27 -13 13 12 79 41 105 16 15 18 22 8 37 -6 11 -8
26 -3 37 4 11 8 32 9 49 1 34 33 48 48 21 5 -9 15 -16 22 -16 8 0 16 -6 19
-13 10 -28 -10 -180 -30 -219 l-14 -28 455 0 c401 0 455 2 450 15 -4 8 -1 15
5 15 6 0 11 -7 11 -15 0 -12 15 -15 79 -15 l79 0 -5 40 c-4 26 -2 40 5 40 14
0 32 -33 32 -59 l0 -21 878 0 877 1 105 49 c58 27 108 56 113 65 4 8 11 22 15
32 4 9 18 20 30 24 19 7 22 5 22 -17 0 -21 4 -25 18 -19 9 4 30 12 45 17 26
10 28 14 26 54 -2 24 0 46 4 50 4 4 10 29 13 57 6 46 9 51 50 68 23 11 49 16
57 13 9 -3 26 1 39 9 13 8 42 17 66 20 39 5 46 2 84 -33 41 -39 41 -39 76 -24
34 14 45 24 79 72 14 21 22 23 56 18 34 -6 43 -3 73 24 19 16 40 30 46 30 51
0 538 386 538 426 0 8 11 19 25 24 14 5 28 18 31 27 3 10 10 28 16 40 14 29
-6 137 -42 227 -22 54 -26 75 -19 95 15 38 1 82 -40 126 -49 52 -81 99 -81
119 0 9 -16 22 -35 30 -40 17 -44 30 -15 46 11 6 20 16 20 23 0 8 13 26 29 41
20 19 31 41 33 63 6 63 79 82 129 32 11 -11 17 -25 13 -31 -4 -6 -1 -9 6 -6 8
2 18 12 24 21 12 18 11 19 -38 81 -25 32 -28 41 -21 82 4 28 16 56 33 75 26
27 29 28 68 18 35 -9 46 -8 79 10 21 11 40 28 42 38 3 10 4 77 3 150 0 121 -4
154 -29 263 -11 48 -39 128 -56 159 -34 63 -55 127 -55 168 l0 45 38 -49 c98
-128 127 -161 135 -156 18 11 -31 229 -58 263 -7 8 -18 31 -25 50 -15 43 -72
78 -119 75 -34 -3 -32 -8 -57 110 -21 100 -38 130 -89 155 -22 11 -52 30 -66
41 -29 23 -86 28 -150 15 -32 -7 -41 -4 -81 26 -27 21 -66 39 -101 47 -33 7
-67 22 -81 36 -26 26 -100 42 -120 26 -7 -6 -19 -30 -26 -53 -7 -24 -16 -46
-19 -50 -10 -12 -32 8 -34 30 -1 13 -8 22 -18 22 -18 0 -33 37 -34 80 0 45
-90 67 -145 35 -14 -8 -35 -14 -47 -15 -13 0 -32 -9 -43 -20 -11 -11 -24 -20
-30 -20 -5 0 -10 -8 -10 -17 -1 -17 -1 -17 -14 0 -9 12 -26 17 -52 16 -22 0
-58 2 -81 6 -40 7 -42 9 -28 28 13 18 12 23 -11 50 -35 42 -66 106 -58 119 4
7 3 8 -4 4 -7 -4 -12 -19 -12 -33 0 -20 -3 -24 -17 -18 -31 13 -93 16 -113 5
-26 -14 -88 -135 -76 -147 2 -2 24 -4 50 -5 45 -1 46 -1 46 -34 0 -23 -5 -34
-15 -34 -8 0 -22 -12 -31 -27 -35 -57 -69 -108 -81 -120 -12 -13 -7 -49 8 -59
16 -10 9 -32 -12 -37 -24 -7 -74 9 -111 35 -26 18 -117 26 -131 11 -4 -3 3
-17 15 -30 24 -26 13 -31 -20 -8 -19 14 -24 14 -48 -2 -22 -14 -26 -14 -22 -3
2 8 15 20 27 26 13 7 31 26 42 43 10 17 24 31 31 31 6 0 -1 14 -17 30 -33 35
-56 38 -94 11 -44 -32 -55 -30 -56 9 -1 42 19 70 52 70 49 0 9 44 -50 55 -22
4 -41 15 -45 24 -3 9 -10 19 -15 23 -7 4 -4 22 6 50 32 84 20 103 -54 87 -24
-6 -53 -8 -65 -5 -33 9 -104 82 -92 94 21 21 -19 66 -49 55z m-158 -163 c3 -5
1 -10 -4 -10 -6 0 -11 5 -11 10 0 6 2 10 4 10 3 0 8 -4 11 -10z m97 -56 c-6
-31 -54 -66 -110 -80 -31 -8 -45 -8 -50 0 -13 20 -120 25 -133 5 -4 -6 -15 -9
-24 -5 -14 5 -15 9 -5 21 7 8 9 15 5 15 -4 0 -2 6 4 14 20 24 97 30 131 10 23
-14 32 -16 42 -6 7 7 21 12 33 12 22 1 65 32 65 49 0 7 7 7 23 0 18 -8 23 -17
19 -35z m1313 -144 c3 -6 14 -10 24 -10 10 0 24 -7 32 -16 11 -14 8 -15 -30
-12 -38 3 -44 7 -56 36 -13 31 -13 32 5 22 10 -6 22 -15 25 -20z m50 12 c-3
-3 -11 0 -18 7 -9 10 -8 11 6 5 10 -3 15 -9 12 -12z m56 -32 c23 0 32 -30 15
-49 -14 -16 -16 -20 -16 -43 0 -6 -7 -4 -18 5 -10 10 -23 17 -29 17 -6 0 -9 9
-6 21 4 14 9 17 16 10 16 -16 37 -13 37 4 0 8 -4 15 -10 15 -5 0 -15 10 -21
23 -9 18 -9 20 2 10 7 -7 21 -13 30 -13z m469 -141 c0 -17 -17 -17 -27 1 -10
15 -9 17 8 13 10 -3 19 -9 19 -14z m-1970 1 c0 -5 -5 -10 -11 -10 -5 0 -7 5
-4 10 3 6 8 10 11 10 2 0 4 -4 4 -10z m-97 -81 c38 -21 44 -49 11 -49 -8 0
-13 4 -10 9 11 17 -23 34 -55 27 -27 -5 -30 -4 -19 9 15 18 43 19 73 4z m1096
-18 c30 -19 -8 -33 -57 -22 -1 1 3 8 10 16 15 17 27 18 47 6z m-884 -21 c-3
-5 -11 -10 -16 -10 -6 0 -7 5 -4 10 3 6 11 10 16 10 6 0 7 -4 4 -10z m591 -15
c14 -14 31 -22 37 -19 8 5 8 2 -1 -7 -9 -10 -17 -11 -30 -3 -18 11 -45 8 -38
-5 3 -4 -6 -8 -20 -9 -19 -1 -24 3 -24 21 0 50 38 60 76 22z m-219 -107 c-3
-8 -6 -5 -6 6 -1 11 2 17 5 13 3 -3 4 -12 1 -19z m70 0 c-3 -8 -6 -5 -6 6 -1
11 2 17 5 13 3 -3 4 -12 1 -19z m-24 -28 c-7 -28 -13 -25 -13 6 0 14 4 23 9
20 5 -3 7 -15 4 -26z m1887 1 c0 -6 -4 -13 -10 -16 -5 -3 -10 1 -10 9 0 9 5
16 10 16 6 0 10 -4 10 -9z m-956 -53 c-4 -6 -10 -5 -15 3 -14 22 -10 33 6 19
8 -7 12 -17 9 -22z m383 3 c-5 -19 17 -44 29 -33 4 4 4 1 0 -6 -16 -28 -62 21
-50 53 8 20 27 7 21 -14z m-117 -20 c0 -5 -11 -11 -25 -13 -24 -5 -32 2 -18
15 9 10 43 8 43 -2z m260 -1 c0 -5 -4 -10 -10 -10 -5 0 -10 5 -10 10 0 6 5 10
10 10 6 0 10 -4 10 -10z m-244 -26 c-4 -9 -9 -15 -11 -12 -3 3 -3 13 1 22 4 9
9 15 11 12 3 -3 3 -13 -1 -22z m-1094 -16 c-7 -7 -12 -8 -12 -2 0 14 12 26 19
19 2 -3 -1 -11 -7 -17z m935 -51 c-2 -7 -15 -12 -30 -12 -19 -1 -23 2 -16 11
7 8 7 14 -1 19 -5 3 -10 1 -10 -6 0 -8 -4 -8 -15 1 -22 18 -18 30 9 30 14 0
28 5 32 11 8 14 37 -36 31 -54z m63 7 c0 -8 -4 -14 -10 -14 -5 0 -10 9 -10 21
0 11 5 17 10 14 6 -3 10 -13 10 -21z m-1058 -46 c-9 -9 -12 -4 -11 23 0 32 1
33 11 11 8 -17 8 -26 0 -34z m918 17 c0 -9 -6 -12 -15 -9 -8 4 -12 10 -9 15 8
14 24 10 24 -6z m470 -11 c0 -2 -7 -4 -15 -4 -8 0 -15 4 -15 10 0 5 7 7 15 4
8 -4 15 -8 15 -10z m-1430 -25 c0 -24 -12 -24 -27 0 -10 15 -10 21 0 24 18 6
27 -2 27 -24z m1750 -24 c0 -18 -27 -27 -33 -11 -6 16 12 38 25 30 4 -3 8 -11
8 -19z m-1610 -4 c0 -6 -4 -13 -10 -16 -5 -3 -10 1 -10 9 0 9 5 16 10 16 6 0
10 -4 10 -9z m-1017 -35 c-15 -13 -30 -22 -33 -19 -5 5 41 42 53 43 4 0 -5
-11 -20 -24z m2205 -4 c6 -18 -15 -14 -22 4 -4 10 -1 14 6 12 6 -2 14 -10 16
-16z m-2168 -13 c-7 -11 -14 -18 -17 -15 -3 3 0 12 7 21 18 21 23 19 10 -6z
m198 -53 c34 -43 42 -61 42 -94 0 -23 -5 -53 -12 -67 -21 -47 -40 -23 -27 35
7 29 4 40 -17 68 -14 18 -23 40 -20 48 3 9 -1 22 -9 30 -16 16 -20 34 -7 34 4
-1 26 -25 50 -54z m-2428 24 c0 -5 -8 -9 -17 -8 -10 1 -38 0 -62 0 -37 -2 -42
-4 -31 -17 9 -11 7 -19 -14 -40 -25 -25 -60 -33 -70 -16 -4 5 0 12 6 15 7 3 1
3 -13 0 -24 -5 -27 -3 -25 20 1 22 7 26 46 32 25 4 63 10 85 14 59 11 95 11
95 0z m2186 -18 c-4 -3 -14 2 -24 12 -16 18 -16 18 6 6 13 -6 21 -14 18 -18z
m2604 8 c0 -5 7 -10 15 -10 8 0 15 -4 15 -10 0 -17 -25 -11 -38 10 -7 12 -8
20 -2 20 5 0 10 -4 10 -10z m-830 -10 c0 -5 -2 -10 -4 -10 -3 0 -8 5 -11 10
-3 6 -1 10 4 10 6 0 11 -4 11 -10z m435 -20 c3 -5 1 -10 -4 -10 -6 0 -11 5
-11 10 0 6 2 10 4 10 3 0 8 -4 11 -10z m576 -23 c-13 -13 -26 -3 -16 12 3 6
11 8 17 5 6 -4 6 -10 -1 -17z m-939 -12 c-2 -14 -8 -28 -13 -31 -10 -6 -12 39
-2 49 13 14 20 6 15 -18z m443 -16 c11 -17 0 -20 -21 -4 -17 13 -17 14 -2 15
9 0 20 -5 23 -11z m-2178 -16 c-9 -9 -19 -14 -23 -11 -10 10 6 28 24 28 15 0
15 -1 -1 -17z m2168 -13 c3 -5 -1 -10 -9 -10 -9 0 -16 5 -16 10 0 6 4 10 9 10
6 0 13 -4 16 -10z m-2068 -32 c-3 -8 -6 -5 -6 6 -1 11 2 17 5 13 3 -3 4 -12 1
-19z m2031 4 c2 -7 -2 -10 -12 -6 -9 3 -16 11 -16 16 0 13 23 5 28 -10z
m-5528 -25 c0 -17 -38 -52 -47 -44 -10 11 15 57 32 57 8 0 15 -6 15 -13z m244
7 c9 -3 16 -14 16 -24 0 -13 6 -17 19 -13 23 6 39 -16 20 -28 -8 -5 -22 -7
-32 -5 -10 2 -30 -3 -46 -11 -32 -19 -99 -11 -108 13 -14 38 80 87 131 68z
m1109 -46 c44 -13 60 -29 51 -52 -7 -18 -20 -21 -29 -6 -3 6 -11 10 -17 10 -6
0 -1 -11 12 -25 19 -20 21 -27 11 -39 -7 -8 -10 -20 -6 -26 3 -5 1 -10 -5 -10
-6 0 -14 -8 -17 -17 -4 -10 -19 -30 -35 -46 -15 -15 -28 -31 -28 -35 0 -4 -7
-18 -16 -30 -13 -18 -19 -21 -30 -11 -11 9 -21 9 -40 0 -35 -16 -46 -14 -42 7
2 10 -8 32 -22 48 -34 41 -49 49 -43 24 3 -11 0 -20 -6 -20 -18 0 -26 4 -24
12 2 4 -4 5 -11 2 -11 -4 -14 2 -11 25 3 20 0 31 -8 31 -19 0 -36 35 -30 61 5
21 27 43 43 44 3 0 18 12 33 28 27 26 41 31 82 28 17 -2 18 0 5 9 -19 14 126
4 183 -12z m4087 -23 c-15 -18 -33 -20 -27 -2 2 6 10 11 16 10 6 -2 11 2 11 9
0 6 3 8 6 5 4 -4 1 -13 -6 -22z m113 -10 c-3 -9 -8 -14 -10 -11 -3 3 -2 9 2
15 9 16 15 13 8 -4z m-3421 -23 c-19 -6 -44 6 -37 18 4 7 14 6 28 -2 14 -7 17
-13 9 -16z m-2111 5 c-1 -12 -15 -9 -19 4 -3 6 1 10 8 8 6 -3 11 -8 11 -12z
m1778 -6 c14 -11 20 -21 13 -25 -6 -3 -18 1 -27 11 -14 14 -22 15 -49 5 -39
-15 -66 -15 -66 -2 0 10 52 28 85 29 11 0 31 -8 44 -18z m476 -31 c-3 -5 -13
-10 -21 -10 -8 0 -14 5 -14 10 0 6 9 10 21 10 11 0 17 -4 14 -10z m3029 -5
c-4 -8 -10 -12 -15 -9 -11 6 -2 24 11 24 5 0 7 -7 4 -15z m-2690 -26 c-12 -13
-20 -16 -22 -9 -3 7 2 16 9 21 25 16 32 9 13 -12z m1114 0 c-10 -5 -18 -17
-18 -24 0 -8 -4 -15 -10 -15 -11 0 -1 32 14 42 6 4 16 8 21 8 6 -1 2 -5 -7
-11z m-4159 -63 c9 -11 10 -20 1 -35 -9 -17 -16 -20 -38 -14 -15 4 -42 7 -59
7 -25 0 -33 4 -33 17 0 10 8 23 18 28 26 16 98 13 111 -3z m4134 -1 c-3 -9 -8
-14 -10 -11 -3 3 -2 9 2 15 9 16 15 13 8 -4z m1643 -3 c1 -7 0 -8 -3 -2 -2 5
-9 8 -14 4 -5 -3 -9 0 -9 6 0 15 23 7 26 -8z m614 8 c0 -5 -5 -10 -11 -10 -5
0 -7 5 -4 10 3 6 8 10 11 10 2 0 4 -4 4 -10z m-3146 -39 c14 -12 20 -13 23 -3
9 24 21 11 28 -29 8 -45 8 -44 -22 -53 -15 -5 -27 -1 -41 14 -17 18 -21 19
-32 5 -10 -12 -8 -16 11 -24 13 -5 33 -18 43 -30 19 -21 43 -30 31 -12 -3 6 3
15 13 20 18 9 20 6 26 -40 4 -29 13 -52 21 -56 8 -3 12 -9 9 -14 -5 -9 8 -62
26 -104 32 -75 35 -125 8 -125 -13 0 -50 -59 -54 -86 -7 -43 -45 -50 -72 -12
-7 10 -20 18 -28 18 -8 0 -12 5 -9 11 4 6 -3 30 -16 54 l-23 43 28 33 c24 29
27 39 22 76 -7 52 -43 126 -57 118 -5 -4 -7 -15 -4 -26 8 -25 -4 -99 -15 -99
-5 0 -33 -23 -62 -51 -29 -28 -66 -56 -83 -63 -57 -24 -170 -173 -191 -253
-16 -60 -23 -72 -66 -115 -19 -18 -28 -36 -28 -58 0 -24 -4 -31 -15 -26 -8 3
-19 -3 -25 -14 -8 -15 -6 -22 11 -33 26 -19 21 -51 -9 -55 -21 -3 -28 -26 -24
-83 1 -9 -11 -30 -26 -47 -25 -29 -31 -31 -70 -25 -39 5 -43 8 -38 29 4 13 2
32 -2 41 -42 85 -45 93 -38 135 7 41 6 41 -13 24 -18 -17 -20 -16 -34 5 -12
16 -27 22 -63 23 -50 3 -70 20 -35 31 12 3 21 11 21 16 0 5 5 9 11 9 7 0 18 8
25 18 12 16 14 16 42 0 40 -24 72 -23 72 1 0 10 -9 21 -20 24 -21 5 -29 50
-11 61 11 7 2 57 -14 76 -12 13 -17 75 -6 64 2 -2 10 1 18 7 15 13 18 85 4 93
-5 3 -7 15 -4 26 3 11 10 17 15 14 5 -3 16 2 23 12 10 14 14 15 15 5 0 -11 4
-11 18 2 10 10 22 14 25 11 4 -4 11 4 16 17 12 31 56 69 80 69 22 0 38 17 43
45 2 17 -2 19 -29 17 -24 -3 -33 1 -33 12 0 29 71 78 88 62 3 -4 1 -20 -5 -36
-15 -41 -2 -45 49 -17 24 14 59 30 80 36 20 7 39 19 42 27 3 8 10 12 16 9 6
-3 13 1 16 9 3 9 12 16 18 16 7 0 21 6 32 14 15 12 17 17 7 27 -18 18 -16 29
3 29 10 0 14 -6 10 -15 -4 -12 2 -14 40 -10 73 9 92 20 99 57 4 19 6 38 5 43
-6 30 1 36 33 30 17 -4 41 -15 51 -24z m-2554 -21 c4 -14 5 -31 2 -37 -6 -18
-40 -16 -59 3 -13 12 -13 20 -4 40 15 33 53 29 61 -6z m5160 17 c0 -7 -7 -22
-15 -33 -14 -18 -14 -17 -15 14 0 22 5 32 15 32 8 0 15 -6 15 -13z m170 3 c0
-5 -4 -10 -10 -10 -5 0 -10 5 -10 10 0 6 5 10 10 10 6 0 10 -4 10 -10z m115
-10 c-32 -22 -55 -26 -55 -10 0 5 15 14 33 19 50 14 54 13 22 -9z m120 -28
c-8 -9 -25 20 -18 31 3 5 10 2 15 -7 6 -10 7 -20 3 -24z m-275 18 c0 -5 -9
-10 -21 -10 -11 0 -17 5 -14 10 3 6 13 10 21 10 8 0 14 -4 14 -10z m-5050 -34
c0 -3 -4 -8 -10 -11 -5 -3 -10 -1 -10 4 0 6 5 11 10 11 6 0 10 -2 10 -4z m104
-15 c8 -12 -48 -71 -67 -71 -9 0 -19 9 -22 20 -3 11 -11 20 -16 20 -6 0 -6 8
1 20 8 15 21 20 55 20 24 0 46 -4 49 -9z m786 -10 c0 -14 -6 -19 -20 -18 -25
2 -26 13 -2 26 23 14 22 14 22 -8z m236 7 c9 -14 -31 -48 -57 -48 -22 0 -27
45 -6 53 23 10 56 7 63 -5z m809 3 c3 -5 1 -13 -5 -16 -15 -9 -43 3 -35 15 8
13 32 13 40 1z m-2975 -16 c0 -15 -46 -32 -57 -21 -10 9 18 36 38 36 11 0 19
-7 19 -15z m3760 -20 c0 -8 -4 -15 -10 -15 -5 0 -10 7 -10 15 0 8 5 15 10 15
6 0 10 -7 10 -15z m46 3 c4 -6 3 -8 -4 -4 -5 3 -12 0 -15 -6 -2 -7 -8 -10 -12
-6 -8 8 2 28 15 28 5 0 12 -5 16 -12z m2090 -34 c-5 -17 -2 -24 9 -24 8 0 15
-4 15 -10 0 -23 -28 -7 -53 30 -23 33 -21 38 9 32 21 -4 24 -9 20 -28z m-2382
13 c-2 -7 6 -19 18 -26 24 -12 53 -61 37 -61 -5 0 -29 19 -54 42 -39 36 -43
43 -28 50 27 10 33 9 27 -5z m2751 3 c3 -5 1 -10 -4 -10 -6 0 -11 5 -11 10 0
6 2 10 4 10 3 0 8 -4 11 -10z m-556 -24 c6 -8 1 -12 -20 -13 -22 -2 -29 2 -29
16 0 14 5 18 20 14 10 -3 24 -10 29 -17z m-1449 -21 c0 -9 -6 -12 -15 -9 -8 4
-15 10 -15 15 0 5 7 9 15 9 8 0 15 -7 15 -15z m-4183 -11 c-3 -3 -12 -4 -19
-1 -8 3 -5 6 6 6 11 1 17 -2 13 -5z m-63 -19 c-10 -8 -26 -14 -34 -15 -8 0 -4
6 10 14 34 19 48 20 24 1z m135 -16 c-16 -10 -23 -4 -14 10 3 6 11 8 17 5 6
-4 5 -9 -3 -15z m5381 11 c0 -5 -13 -10 -29 -10 -17 0 -33 5 -36 10 -4 6 8 10
29 10 20 0 36 -4 36 -10z m-5640 -29 c-8 -6 -17 -8 -22 -5 -4 3 -32 -3 -63
-11 -30 -9 -61 -14 -68 -12 -6 3 -3 6 9 6 11 1 29 8 40 16 11 8 41 14 69 15
34 0 45 -3 35 -9z m4255 -38 c-8 -34 -11 -37 -24 -28 -15 9 -14 42 2 48 25 11
29 6 22 -20z m-2025 3 c0 -2 3 -11 6 -20 4 -9 -4 -19 -23 -29 -32 -16 -59 -12
-67 9 -11 28 5 44 45 44 21 0 39 -2 39 -4z m4123 -33 c-5 -12 -7 -12 -14 -1
-13 20 -11 28 5 22 8 -3 12 -12 9 -21z m-5893 7 c0 -5 -7 -10 -16 -10 -8 0
-12 5 -9 10 3 6 10 10 16 10 5 0 9 -4 9 -10z m4450 -5 c-7 -9 -15 -13 -17 -11
-7 7 7 26 19 26 6 0 6 -6 -2 -15z m765 5 c-3 -5 -10 -10 -16 -10 -5 0 -9 5 -9
10 0 6 7 10 16 10 8 0 12 -4 9 -10z m-185 -9 c0 -6 -4 -13 -10 -16 -5 -3 -10
1 -10 9 0 9 5 16 10 16 6 0 10 -4 10 -9z m337 -43 c17 -20 12 -33 -17 -41 -13
-3 -25 2 -35 16 -13 19 -12 22 8 41 12 12 24 17 26 11 2 -5 10 -18 18 -27z
m-3160 -3 c25 -26 15 -48 -24 -58 -35 -8 -80 63 -56 87 12 12 57 -4 80 -29z
m-602 -14 c1 -18 -5 -49 -12 -69 -20 -59 17 -63 91 -10 32 23 49 28 97 28 57
0 58 0 88 -46 38 -55 43 -87 9 -58 -12 10 -18 13 -14 6 5 -8 -2 -20 -18 -33
-17 -13 -28 -34 -32 -60 -8 -48 -24 -62 -55 -50 -27 10 -119 104 -119 122 0 7
-9 9 -23 6 -12 -4 -29 -2 -36 3 -10 6 -23 -1 -43 -22 -34 -37 -56 -33 -81 12
-10 19 -23 39 -27 44 -16 17 32 87 88 127 67 47 87 47 87 0z m3640 29 c3 -5 2
-10 -4 -10 -5 0 -13 5 -16 10 -3 6 -2 10 4 10 5 0 13 -4 16 -10z m-615 -53 c0
-16 -55 -2 -58 15 -3 15 1 15 27 5 17 -6 31 -15 31 -20z m450 23 c0 -12 -8
-12 -35 0 -18 8 -17 9 8 9 15 1 27 -3 27 -9z m-580 -7 c0 -3 -7 -15 -16 -25
-14 -14 -14 -21 -4 -32 17 -21 3 -74 -27 -102 -23 -21 -26 -22 -44 -6 -22 19
-23 51 -5 102 10 28 18 34 36 32 13 -2 20 0 16 7 -4 5 2 14 11 20 21 12 33 14
33 4z m-4170 -38 c16 -19 4 -35 -25 -35 -27 0 -39 14 -31 35 7 19 40 19 56 0z
m4700 5 c0 -5 -4 -10 -9 -10 -6 0 -13 5 -16 10 -3 6 1 10 9 10 9 0 16 -4 16
-10z m390 -30 c0 -19 -25 -28 -43 -16 -26 20 -20 33 13 28 17 -2 30 -8 30 -12z
m-2050 -10 c0 -5 -16 -16 -35 -24 -25 -11 -33 -19 -29 -30 4 -11 0 -16 -11
-16 -12 0 -15 5 -11 16 3 9 6 20 6 24 0 11 49 39 68 40 6 0 12 -4 12 -10z
m-107 -36 c-3 -8 -9 -14 -13 -14 -13 0 -22 19 -15 30 9 14 34 0 28 -16z m1627
-4 c0 -5 -4 -10 -10 -10 -5 0 -10 5 -10 10 0 6 5 10 10 10 6 0 10 -4 10 -10z
m-3945 -10 c3 -5 2 -10 -4 -10 -5 0 -13 5 -16 10 -3 6 -2 10 4 10 5 0 13 -4
16 -10z m4395 -5 c0 -8 -7 -15 -15 -15 -26 0 -18 20 13 29 1 1 2 -6 2 -14z
m-1958 -17 c-7 -7 -12 -8 -12 -2 0 14 12 26 19 19 2 -3 -1 -11 -7 -17z m1728
3 c0 -5 -7 -11 -15 -15 -15 -5 -20 5 -8 17 9 10 23 9 23 -2z m750 -5 c0 -3 -4
-8 -10 -11 -5 -3 -10 -1 -10 4 0 6 5 11 10 11 6 0 10 -2 10 -4z m-2522 -23
c-5 -24 -27 -28 -25 -4 1 12 7 21 15 21 7 0 12 -8 10 -17z m1812 7 c0 -5 -2
-10 -4 -10 -3 0 -8 5 -11 10 -3 6 -1 10 4 10 6 0 11 -4 11 -10z m-1865 -41
c-19 -52 -19 -59 0 -59 19 0 19 -11 0 -36 -13 -16 -16 -17 -25 -4 -11 15 -9
40 5 74 6 14 5 17 -3 12 -16 -10 -16 26 0 42 7 7 18 12 25 12 9 0 9 -9 -2 -41z
m-1381 22 c9 -14 -4 -41 -20 -41 -8 0 -14 8 -14 18 0 29 22 43 34 23z m79 -5
c6 -15 -18 -56 -33 -56 -5 0 -12 10 -16 22 -10 32 37 65 49 34z m237 4 c0 -5
-4 -10 -10 -10 -5 0 -10 5 -10 10 0 6 5 10 10 10 6 0 10 -4 10 -10z m3370 -5
c0 -21 -39 -40 -53 -26 -8 8 -5 15 9 26 25 19 44 19 44 0z m-377 -14 c4 -4 5
-15 1 -25 -6 -15 -9 -15 -23 -3 -9 8 -24 17 -33 20 -10 4 -18 12 -18 18 0 13
58 5 73 -10z m-5230 -26 c-6 -17 -29 -20 -38 -6 -6 11 25 32 37 25 4 -3 5 -11
1 -19z m2085 16 c18 -11 -5 -61 -28 -61 -25 0 -52 44 -37 59 13 13 46 14 65 2z
m2717 -1 c3 -5 1 -10 -4 -10 -6 0 -11 5 -11 10 0 6 2 10 4 10 3 0 8 -4 11 -10z
m-4015 -10 c0 -5 -4 -10 -10 -10 -5 0 -10 5 -10 10 0 6 5 10 10 10 6 0 10 -4
10 -10z m-872 -12 c-3 -7 -13 -15 -24 -17 -16 -3 -17 -1 -5 13 16 19 34 21 29
4z m709 -25 c2 -6 -7 -19 -20 -27 -19 -13 -30 -14 -55 -5 -18 6 -29 15 -26 21
16 26 94 35 101 11z m4040 -9 c-9 -9 -28 6 -21 18 4 6 10 6 17 -1 6 -6 8 -13
4 -17z m-5200 -13 c-3 -12 1 -22 9 -25 8 -3 14 -16 14 -30 0 -32 -48 -46 -67
-20 -8 10 -11 24 -9 30 3 7 -2 15 -10 18 -33 13 1 44 50 45 13 1 17 -4 13 -18z
m1437 4 c-4 -8 -17 -15 -30 -15 -15 0 -24 6 -24 15 0 10 10 15 30 15 22 0 28
-4 24 -15z m3006 -5 c0 -5 -7 -7 -15 -4 -8 4 -12 10 -9 15 6 11 24 2 24 -11z
m-565 -19 c3 -5 1 -12 -5 -16 -5 -3 -10 1 -10 9 0 18 6 21 15 7z m588 -11 c-4
-15 2 -22 23 -31 l29 -11 -40 -14 c-41 -14 -75 -11 -75 7 0 23 21 48 35 43 9
-4 15 0 15 10 0 9 4 16 9 16 5 0 7 -9 4 -20z m1723 -4 c17 -18 18 -43 2 -50
-9 -3 -7 -9 6 -20 20 -16 20 -16 0 -31 -18 -14 -18 -14 4 -15 13 0 21 4 17 9
-9 16 15 24 30 11 14 -12 14 -26 -2 -83 -3 -13 -11 -15 -31 -10 -15 3 -33 12
-40 20 -7 7 -19 13 -25 14 -7 1 -23 2 -37 2 -14 1 -25 7 -25 14 0 7 -16 26
-35 42 l-35 31 42 40 c33 32 50 40 78 40 20 0 43 -6 51 -14z m-496 -6 c0 -5
-9 -10 -21 -10 -11 0 -17 5 -14 10 3 6 13 10 21 10 8 0 14 -4 14 -10z m720 -4
c0 -3 -4 -8 -10 -11 -5 -3 -10 -1 -10 4 0 6 5 11 10 11 6 0 10 -2 10 -4z
m-602 -24 c2 -7 -3 -12 -12 -12 -9 0 -16 7 -16 16 0 17 22 14 28 -4z m-4021
-31 c28 -42 29 -57 3 -64 -25 -6 -136 38 -120 48 7 4 9 17 5 32 -5 23 -4 24
42 21 41 -3 50 -7 70 -37z m409 2 c-11 -11 -19 6 -11 24 8 17 8 17 12 0 3 -10
2 -21 -1 -24z m352 26 c-2 -6 -8 -10 -13 -10 -5 0 -11 4 -13 10 -2 6 4 11 13
11 9 0 15 -5 13 -11z m3447 1 c3 -5 1 -10 -4 -10 -6 0 -11 5 -11 10 0 6 2 10
4 10 3 0 8 -4 11 -10z m-5053 -12 c39 -23 51 -39 50 -69 -1 -40 -7 -47 -50
-59 -88 -24 -115 -5 -91 68 24 76 42 87 91 60z m4998 -25 c0 -42 -12 -37 -17
7 -1 16 2 30 7 30 6 0 10 -16 10 -37z m-5555 7 c7 -12 -12 -40 -27 -40 -16 0
-21 32 -7 41 18 12 26 11 34 -1z m6185 -10 c22 -22 19 -40 -6 -40 -8 0 -14 8
-14 18 0 10 -5 23 -12 30 -9 9 -9 12 0 12 7 0 21 -9 32 -20z m-4020 -15 c0 -8
-4 -15 -10 -15 -5 0 -10 7 -10 15 0 8 5 15 10 15 6 0 10 -7 10 -15z m-191 -18
c6 -8 8 -17 4 -20 -12 -12 -53 -7 -53 6 0 28 30 37 49 14z m291 -18 c13 -23
-4 -53 -26 -45 -7 3 -22 -4 -34 -14 -24 -20 -49 -17 -79 11 -38 36 -24 62 21
38 25 -14 68 -3 68 16 0 22 38 18 50 -6z m3270 1 c0 -5 -5 -10 -11 -10 -5 0
-7 5 -4 10 3 6 8 10 11 10 2 0 4 -4 4 -10z m694 -31 c30 -6 32 -29 2 -29 -28
0 -36 -24 -11 -34 23 -9 18 -21 -10 -21 -15 0 -27 7 -31 17 -7 23 -61 61 -77
55 -8 -3 -14 4 -14 15 -2 18 3 20 38 15 21 -3 42 -1 45 5 4 5 13 3 22 -5 10
-8 26 -17 36 -18z m-6444 9 c0 -22 -17 -41 -29 -34 -15 10 -14 33 2 39 21 9
27 8 27 -5z m5360 2 c0 -5 -7 -10 -15 -10 -8 0 -15 5 -15 10 0 6 7 10 15 10 8
0 15 -4 15 -10z m-5526 -32 c-8 -12 -64 -10 -64 2 0 6 15 10 34 8 19 -1 32 -6
30 -10z m6366 -18 c4 0 15 -12 25 -26 12 -19 13 -29 5 -38 -5 -8 -8 -21 -4
-30 3 -9 2 -16 -3 -16 -5 0 -10 6 -11 13 -6 63 -16 87 -38 87 -12 0 -12 3 -2
20 10 17 14 18 16 5 2 -8 7 -15 12 -15z m-445 1 c7 -12 -12 -24 -25 -16 -11 7
-4 25 10 25 5 0 11 -4 15 -9z m-375 -11 c0 -5 -5 -10 -11 -10 -5 0 -7 5 -4 10
3 6 8 10 11 10 2 0 4 -4 4 -10z m1125 -10 c3 -5 1 -10 -4 -10 -6 0 -11 5 -11
10 0 6 2 10 4 10 3 0 8 -4 11 -10z m-575 -10 c0 -5 -4 -10 -9 -10 -6 0 -13 5
-16 10 -3 6 1 10 9 10 9 0 16 -4 16 -10z m-3490 -15 c0 -8 -4 -15 -10 -15 -5
0 -10 7 -10 15 0 8 5 15 10 15 6 0 10 -7 10 -15z m3701 -28 c-6 -6 -11 -19
-11 -30 0 -14 5 -17 23 -12 18 6 20 5 10 -6 -7 -7 -13 -33 -13 -58 -1 -34 -7
-53 -25 -73 -13 -16 -28 -28 -32 -28 -15 1 -45 51 -39 66 3 8 -3 28 -15 43
-17 23 -18 31 -8 54 9 20 20 27 48 29 28 2 39 9 51 33 11 25 15 27 18 11 2
-10 -1 -23 -7 -29z m-3545 19 c12 -13 11 -15 -6 -21 -23 -7 -80 3 -80 14 0 25
63 29 86 7z m864 4 c0 -5 -2 -10 -4 -10 -3 0 -8 5 -11 10 -3 6 -1 10 4 10 6 0
11 -4 11 -10z m-1560 -10 c0 -5 -7 -10 -15 -10 -8 0 -15 5 -15 10 0 6 7 10 15
10 8 0 15 -4 15 -10z m3606 -4 c10 -8 17 -16 14 -19 -8 -8 -50 11 -50 23 0 14
13 13 36 -4z m830 -46 c26 -10 33 -30 9 -30 -7 0 -18 8 -24 18 -8 13 -12 14
-22 5 -10 -10 -7 -19 16 -43 16 -16 35 -30 42 -30 7 0 13 -7 13 -15 0 -8 -2
-15 -3 -15 -10 0 -67 32 -72 41 -12 18 -45 10 -45 -11 0 -21 -15 -27 -25 -9
-4 5 0 18 9 28 9 10 16 27 16 38 0 12 8 35 17 52 l18 30 13 -25 c7 -14 24 -29
38 -34z m-1726 19 c21 -29 21 -31 5 -50 -10 -10 -22 -19 -26 -19 -17 0 -39 33
-39 59 0 51 28 56 60 10z m-1200 1 c-11 -20 -22 -25 -33 -14 -11 11 5 34 24
34 17 0 18 -3 9 -20z m2580 -10 c0 -11 5 -22 11 -26 8 -5 7 -10 -4 -16 -10 -5
-29 -3 -50 6 -63 26 -58 54 9 54 26 0 34 -4 34 -18z m-5360 -40 c0 -5 -7 -10
-15 -10 -8 0 -15 5 -15 10 0 6 7 10 15 10 8 0 15 -4 15 -10z m5060 -25 c0 -20
-49 -40 -64 -25 -15 15 7 31 57 39 4 0 7 -6 7 -14z m770 5 c0 -5 -5 -10 -11
-10 -5 0 -7 5 -4 10 3 6 8 10 11 10 2 0 4 -4 4 -10z m-30 -20 c0 -5 -4 -10
-10 -10 -5 0 -10 5 -10 10 0 6 5 10 10 10 6 0 10 -4 10 -10z m-5985 -10 c-3
-5 -11 -10 -16 -10 -6 0 -7 5 -4 10 3 6 11 10 16 10 6 0 7 -4 4 -10z m3014
-28 c5 -10 13 -50 16 -89 5 -51 13 -77 26 -89 26 -23 24 -30 -12 -43 -53 -18
-78 -14 -90 16 -13 36 -37 52 -76 53 -29 0 -33 3 -33 26 0 39 16 61 64 89 25
14 50 32 56 40 17 20 37 19 49 -3z m-1754 -58 c17 -13 18 -16 5 -24 -8 -5 -30
-10 -48 -10 -38 0 -55 26 -28 45 19 14 41 11 71 -11z m2285 -4 c0 -5 -4 -10
-10 -10 -5 0 -10 5 -10 10 0 6 5 10 10 10 6 0 10 -4 10 -10z m2428 -41 c-16
-10 -33 5 -23 21 5 8 11 8 21 -1 12 -10 12 -14 2 -20z m-5082 -14 c-3 -23 -12
-26 -40 -14 -36 17 -33 29 8 29 24 0 34 -4 32 -15z m1289 -42 c19 -13 44 -23
55 -23 31 0 70 -30 70 -53 0 -11 -5 -35 -12 -53 -11 -31 -9 -35 25 -73 33 -37
37 -47 37 -96 0 -50 -2 -56 -26 -65 -42 -16 -50 -12 -90 41 -38 48 -39 50 -53
30 -7 -12 -21 -21 -30 -21 -9 0 -25 -7 -35 -15 -17 -13 -21 -12 -32 3 -7 9
-14 24 -14 32 0 8 -24 27 -53 41 -39 20 -51 31 -49 45 2 10 6 38 9 62 5 40 7
43 31 40 19 -2 28 2 30 15 2 11 -3 17 -13 17 -13 0 -16 6 -12 27 3 19 -2 33
-19 49 l-23 24 24 6 c13 3 49 3 80 -1 41 -4 55 -3 56 7 1 8 3 8 5 -2 3 -8 20
-25 39 -37z m-851 31 c37 -14 4 -51 -35 -39 -22 7 -25 31 -6 38 18 8 23 8 41
1z m-216 -106 c16 -16 15 -43 -3 -58 -12 -10 -21 -8 -46 7 -41 23 -45 37 -17
51 31 14 52 14 66 0z m751 -98 c42 -21 54 -39 40 -61 -6 -10 -2 -15 14 -19 13
-4 23 -15 25 -28 3 -18 -3 -26 -27 -35 -17 -6 -31 -15 -31 -20 0 -4 -4 -6 -9
-3 -5 4 -7 20 -5 36 3 17 1 30 -5 30 -6 0 -11 -4 -11 -10 0 -14 -27 -12 -33 3
-2 6 -1 19 4 28 6 12 1 20 -16 29 -27 14 -32 39 -13 58 16 16 22 15 67 -8z
m2549 -13 c2 -12 -3 -17 -17 -17 -15 0 -21 6 -21 21 0 25 33 22 38 -4z m277
-28 c11 -16 -4 -59 -19 -59 -8 0 -22 7 -31 16 -15 15 -15 18 1 35 19 21 39 25
49 8z m-3205 -49 c0 -5 -2 -10 -4 -10 -3 0 -8 5 -11 10 -3 6 -1 10 4 10 6 0
11 -4 11 -10z m562 -38 c8 -8 8 -15 -2 -27 -12 -15 -15 -14 -26 7 -8 13 -13
26 -14 30 0 10 29 3 42 -10z m813 -52 c3 -5 3 -15 -1 -21 -6 -11 -23 6 -24 24
0 10 18 9 25 -3z m-342 -87 c5 -65 4 -74 -14 -83 -27 -15 -33 6 -25 81 13 115
30 115 39 2z m1982 57 c3 -5 -1 -10 -10 -10 -9 0 -13 5 -10 10 3 6 8 10 10 10
2 0 7 -4 10 -10z m-1613 -40 c-1 -19 -8 -41 -15 -50 -7 -8 -14 -31 -16 -50 -4
-60 -10 -71 -38 -68 -35 4 -52 32 -35 58 7 11 10 31 6 45 -3 13 -1 40 6 59 8
26 18 36 38 39 50 8 57 4 54 -33z m1448 20 c0 -5 -4 -10 -10 -10 -5 0 -10 5
-10 10 0 6 5 10 10 10 6 0 10 -4 10 -10z m-1320 -21 c0 -11 -4 -17 -10 -14 -5
3 -10 13 -10 21 0 8 5 14 10 14 6 0 10 -9 10 -21z m1455 -29 c-5 -8 -11 -8
-17 -2 -6 6 -7 16 -3 22 5 8 11 8 17 2 6 -6 7 -16 3 -22z m-2217 -41 c4 -21
-26 -33 -44 -18 -7 6 -10 17 -7 25 7 20 47 14 51 -7z m782 -85 c0 -17 -22 -14
-28 4 -2 7 3 12 12 12 9 0 16 -7 16 -16z m-742 -15 c-3 -24 -33 -48 -44 -36
-4 4 -2 18 4 32 14 31 45 34 40 4z m1821 -8 c16 -10 6 -31 -14 -31 -17 0 -28
17 -20 30 8 12 16 12 34 1z m-1531 -76 c2 -27 8 -55 13 -62 6 -7 8 -17 4 -22
-3 -6 -29 5 -61 27 -62 42 -67 65 -19 93 47 28 60 21 63 -36z m1782 -40 c0 -8
-4 -15 -10 -15 -5 0 -10 7 -10 15 0 8 5 15 10 15 6 0 10 -7 10 -15z m-1157
-61 c12 -12 -6 -34 -29 -34 -26 0 -30 10 -12 28 13 13 31 16 41 6z m-506 -60
c50 -33 82 -73 83 -101 0 -39 -35 -27 -95 33 -41 41 -54 61 -50 75 8 25 17 24
62 -7z m133 -5 c0 -6 -4 -7 -10 -4 -5 3 -10 11 -10 16 0 6 5 7 10 4 6 -3 10
-11 10 -16z"/>
<path d="M6138 2453 c7 -3 16 -2 19 1 4 3 -2 6 -13 5 -11 0 -14 -3 -6 -6z"/>
<path d="M6971 2023 c0 -5 6 -24 14 -43 9 -26 14 -31 19 -19 8 19 -9 69 -24
69 -5 0 -10 -3 -9 -7z"/>
<path d="M6556 1682 c-4 -6 -13 -30 -21 -53 -19 -52 -12 -81 18 -77 20 3 22 9
22 61 0 61 -7 87 -19 69z"/>
<path d="M7966 3819 c-28 -22 -36 -55 -12 -46 8 3 31 9 50 13 44 8 51 17 30
38 -21 21 -36 20 -68 -5z"/>
<path d="M8950 3825 c0 -16 16 -20 24 -6 3 5 -1 11 -9 15 -9 3 -15 0 -15 -9z"/>
<path d="M5890 3760 c0 -11 5 -20 10 -20 6 0 10 9 10 20 0 11 -4 20 -10 20 -5
0 -10 -9 -10 -20z"/>
<path d="M6915 3750 c-8 -13 15 -24 27 -12 6 6 4 11 -6 15 -8 3 -18 2 -21 -3z"/>
<path d="M7201 3704 c-19 -13 -37 -21 -40 -16 -3 5 -14 11 -24 15 -13 5 -20 0
-26 -16 -5 -12 -23 -38 -41 -57 -22 -23 -30 -40 -26 -55 3 -12 1 -37 -4 -55
-7 -23 -6 -38 1 -47 9 -10 7 -13 -9 -13 -28 0 -46 -34 -33 -59 8 -14 7 -20 -2
-24 -18 -6 -37 3 -37 18 0 8 -9 19 -19 24 -16 9 -20 6 -26 -16 -3 -14 -13 -36
-21 -47 -15 -20 -15 -20 -14 14 4 68 -7 81 -28 35 -16 -35 -15 -60 3 -75 13
-11 14 -15 2 -29 -8 -9 -17 -32 -21 -51 -3 -19 -13 -48 -21 -64 -8 -15 -15
-46 -15 -68 0 -25 -8 -50 -20 -65 -21 -27 -24 -61 -14 -126 9 -49 33 -63 67
-37 34 27 51 25 67 -6 11 -20 12 -32 2 -56 -8 -23 -8 -34 1 -49 16 -25 71 -26
89 0 9 12 32 21 68 26 30 4 60 12 67 17 7 5 17 7 24 3 7 -5 9 -1 6 11 -3 11
-13 61 -23 112 -13 74 -14 95 -4 107 21 25 5 27 -25 3 l-27 -21 8 24 c4 13 7
40 6 59 -1 19 5 50 15 67 l17 33 -35 37 c-30 33 -35 44 -33 83 1 25 9 63 18
85 8 22 15 51 16 66 0 32 17 49 48 49 25 0 132 98 132 121 0 6 8 18 18 25 16
12 16 14 -3 28 -27 21 -44 19 -84 -10z m-251 -454 c0 -5 -2 -10 -4 -10 -3 0
-8 5 -11 10 -3 6 -1 10 4 10 6 0 11 -4 11 -10z m-82 -184 c7 1 8 0 2 -3 -5 -2
-10 -11 -10 -19 0 -8 -9 -14 -20 -14 -22 0 -23 3 -13 39 5 20 8 22 17 9 6 -8
17 -14 24 -12z m135 -82 c8 -9 -11 -44 -23 -44 -6 0 -10 8 -10 18 0 27 18 41
33 26z"/>
<path d="M6862 3689 c-19 -10 -36 -20 -40 -24 -6 -6 16 -25 30 -25 8 0 52 60
47 64 -2 1 -19 -6 -37 -15z"/>
<path d="M4423 3680 c-13 -5 -23 -16 -23 -25 0 -13 9 -15 53 -9 62 8 64 9 47
29 -14 17 -43 18 -77 5z"/>
<path d="M6622 3678 c2 -6 10 -14 16 -16 7 -2 10 2 6 12 -7 18 -28 22 -22 4z"/>
<path d="M6720 3666 c0 -8 4 -17 9 -20 10 -7 23 19 14 28 -11 11 -23 6 -23 -8z"/>
<path d="M6605 3630 c3 -5 13 -10 20 -10 9 0 14 -8 12 -22 -1 -15 4 -23 16
-26 17 -3 17 -2 3 26 -8 16 -23 32 -31 36 -23 8 -27 8 -20 -4z"/>
<path d="M6852 3617 c-6 -6 -12 -25 -14 -41 -3 -27 -11 -34 -57 -56 -21 -9
-26 -30 -7 -30 9 0 16 4 16 9 0 5 13 14 30 21 33 14 60 49 60 79 0 25 -15 35
-28 18z"/>
<path d="M6722 3597 c-9 -10 -8 -18 2 -32 12 -16 16 -17 30 -6 13 11 16 11 17
0 0 -8 4 -5 9 6 9 23 4 30 -26 39 -13 4 -26 1 -32 -7z"/>
<path d="M8543 3603 c-7 -2 -13 -12 -13 -20 0 -10 6 -13 16 -9 9 3 18 6 20 6
2 0 4 7 4 15 0 15 -6 17 -27 8z"/>
<path d="M4272 3578 c-14 -14 -16 -44 -3 -52 5 -3 16 5 25 18 12 20 13 26 2
35 -9 7 -16 7 -24 -1z"/>
<path d="M6480 3538 c0 -17 6 -23 24 -24 21 -2 22 1 12 22 -14 30 -36 31 -36
2z"/>
<path d="M6566 3534 c-4 -11 -1 -14 11 -12 9 2 18 9 21 16 6 18 -25 15 -32 -4z"/>
<path d="M4107 3513 c-3 -5 -2 -15 3 -23 4 -7 6 -19 3 -27 -3 -7 -1 -13 5 -13
6 0 19 -3 29 -7 15 -5 16 -4 6 8 -6 8 -13 25 -15 38 -3 25 -22 39 -31 24z"/>
<path d="M6472 3480 c0 -14 2 -19 5 -12 2 6 2 18 0 25 -3 6 -5 1 -5 -13z"/>
<path d="M4042 3440 c-26 -24 -28 -40 -7 -40 14 0 41 48 32 56 -2 2 -13 -5
-25 -16z"/>
<path d="M6477 3357 c-3 -8 -1 -20 3 -27 5 -8 6 -26 3 -41 -3 -15 0 -30 6 -33
10 -7 12 -1 15 46 1 9 4 20 9 24 4 4 7 16 7 26 0 21 -35 25 -43 5z"/>
<path d="M6280 3239 c0 -5 5 -7 10 -4 6 3 10 8 10 11 0 2 -4 4 -10 4 -5 0 -10
-5 -10 -11z"/>
<path d="M7645 3231 c-6 -5 -25 -11 -44 -13 -37 -3 -52 -22 -26 -32 16 -6 104
33 105 47 0 10 -24 9 -35 -2z"/>
<path d="M3870 3205 c-7 -8 -18 -15 -26 -15 -22 0 -27 -20 -8 -41 17 -19 39
-25 47 -11 2 4 7 24 11 45 7 39 -3 48 -24 22z"/>
<path d="M8225 3140 c-3 -5 -1 -10 4 -10 6 0 11 5 11 10 0 6 -2 10 -4 10 -3 0
-8 -4 -11 -10z"/>
<path d="M8266 3114 c-10 -25 1 -29 14 -5 6 12 7 21 1 21 -5 0 -12 -7 -15 -16z"/>
<path d="M7179 3083 c-13 -16 -12 -17 4 -4 9 7 17 15 17 17 0 8 -8 3 -21 -13z"/>
<path d="M5974 3039 c-22 -17 -49 -35 -61 -40 -23 -8 -29 -32 -17 -63 8 -21
43 -21 59 0 11 15 14 15 43 0 49 -25 53 -22 47 44 -4 44 -3 60 6 60 12 0 -20
29 -32 30 -3 0 -24 -14 -45 -31z"/>
<path d="M7635 3059 c-4 -6 -14 -8 -22 -5 -22 9 -53 -12 -53 -34 0 -29 38 -25
83 9 29 23 34 30 21 35 -21 8 -22 8 -29 -5z"/>
<path d="M6427 3006 c-4 -9 -15 -16 -26 -16 -22 0 -57 -55 -42 -65 5 -3 11 5
13 17 2 13 11 24 21 26 15 3 17 -2 11 -39 -5 -31 -4 -40 4 -35 7 4 12 16 12
27 0 10 6 19 14 19 19 0 28 52 12 68 -11 11 -14 11 -19 -2z"/>
<path d="M5785 3000 c-3 -5 -1 -10 4 -10 6 0 11 5 11 10 0 6 -2 10 -4 10 -3 0
-8 -4 -11 -10z"/>
<path d="M3665 2900 c-3 -6 4 -19 17 -30 29 -23 36 -8 10 20 -13 14 -22 18
-27 10z"/>
<path d="M6257 2903 c-4 -3 -7 -11 -7 -17 0 -6 5 -5 12 2 6 6 9 14 7 17 -3 3
-9 2 -12 -2z"/>
<path d="M7892 2878 c3 -7 13 -15 23 -17 17 -3 17 -2 3 13 -20 19 -31 21 -26
4z"/>
<path d="M8155 2880 c3 -5 8 -10 11 -10 2 0 4 5 4 10 0 6 -5 10 -11 10 -5 0
-7 -4 -4 -10z"/>
<path d="M5635 2865 c-30 -7 -59 -8 -73 -3 -41 15 -54 11 -42 -13 9 -15 18
-19 35 -15 15 4 25 1 29 -9 3 -8 15 -15 26 -15 11 0 20 -7 20 -15 0 -30 41
-45 93 -33 36 7 46 13 38 21 -6 6 -11 19 -11 28 0 27 -21 34 -37 13 -12 -16
-15 -17 -23 -4 -7 11 -4 19 12 31 19 15 20 16 2 20 -11 3 -41 0 -69 -6z"/>
<path d="M6232 2862 c-18 -3 -23 -9 -20 -29 2 -14 11 -30 21 -34 9 -5 25 -13
35 -17 9 -5 27 -28 40 -50 13 -23 28 -42 33 -42 4 0 16 11 25 25 16 24 16 27
-2 39 -15 12 -16 16 -5 30 7 9 19 16 26 16 15 0 47 57 37 64 -4 2 -19 2 -35
-1 -26 -5 -31 -13 -28 -40 2 -18 -14 -16 -29 2 -7 8 -22 15 -33 15 -11 0 -25
6 -31 13 -6 7 -21 11 -34 9z"/>
<path d="M4995 2850 c-3 -5 1 -10 10 -10 9 0 13 5 10 10 -3 6 -8 10 -10 10 -2
0 -7 -4 -10 -10z"/>
<path d="M8968 2822 c-21 -4 -23 -17 -6 -28 7 -5 5 -11 -7 -21 -17 -12 -14
-13 27 -13 74 0 128 29 81 43 -65 20 -80 23 -95 19z"/>
<path d="M4210 2790 c0 -11 7 -20 15 -20 17 0 18 2 9 24 -9 23 -24 20 -24 -4z"/>
<path d="M7125 2800 c-3 -5 1 -10 9 -10 9 0 16 5 16 10 0 6 -4 10 -9 10 -6 0
-13 -4 -16 -10z"/>
<path d="M6606 2791 c-3 -4 -19 -11 -35 -14 l-30 -6 23 -65 c29 -80 70 -129
58 -71 -3 16 1 27 11 31 9 3 13 12 11 19 -3 7 2 25 12 40 16 25 16 27 -6 50
-25 27 -35 30 -44 16z m12 -65 c3 -13 -1 -17 -14 -14 -11 2 -20 11 -22 22 -3
13 1 17 14 14 11 -2 20 -11 22 -22z"/>
<path d="M6388 2763 c7 -3 16 -2 19 1 4 3 -2 6 -13 5 -11 0 -14 -3 -6 -6z"/>
<path d="M7646 2702 c-7 -12 5 -52 15 -52 5 0 9 14 9 30 0 28 -13 40 -24 22z"/>
<path d="M7431 2683 c-1 -6 6 -18 14 -27 8 -8 15 -19 15 -25 0 -6 6 -8 13 -5
8 3 20 -2 27 -10 7 -9 17 -13 22 -10 6 4 14 1 18 -7 7 -10 14 -10 35 -1 33 15
23 32 -20 32 -19 0 -35 6 -38 14 -3 7 -21 16 -40 20 -20 4 -38 12 -40 19 -4 9
-6 9 -6 0z"/>
<path d="M8920 2676 c0 -9 5 -16 10 -16 6 0 10 4 10 9 0 6 -4 13 -10 16 -5 3
-10 -1 -10 -9z"/>
<path d="M4213 2655 c-7 -8 -13 -24 -13 -37 0 -22 0 -22 13 -3 30 44 29 73 0
40z"/>
<path d="M6520 2660 c0 -5 9 -10 21 -10 11 0 17 5 14 10 -3 6 -13 10 -21 10
-8 0 -14 -4 -14 -10z"/>
<path d="M6234 2649 c-8 -14 35 -50 55 -46 27 4 22 26 -8 41 -36 19 -38 19
-47 5z"/>
<path d="M7382 2644 c-20 -22 -10 -37 13 -20 13 10 17 18 10 24 -7 7 -15 5
-23 -4z"/>
<path d="M8765 2650 c-13 -6 -15 -9 -5 -9 8 0 22 4 30 9 18 12 2 12 -25 0z"/>
<path d="M7328 2623 c7 -3 16 -2 19 1 4 3 -2 6 -13 5 -11 0 -14 -3 -6 -6z"/>
<path d="M7246 2575 c4 -8 10 -12 15 -9 14 8 10 24 -6 24 -9 0 -12 -6 -9 -15z"/>
<path d="M7661 2514 c15 -16 25 -21 28 -13 2 7 -4 18 -15 26 -30 22 -39 15
-13 -13z"/>
<path d="M7000 2500 c0 -5 5 -10 10 -10 6 0 10 5 10 10 0 6 -4 10 -10 10 -5 0
-10 -4 -10 -10z"/>
<path d="M7743 2492 c-9 -6 -7 -12 7 -25 25 -21 41 -22 34 -2 -4 8 -13 15 -21
15 -8 0 -11 5 -8 10 7 12 4 12 -12 2z"/>
<path d="M7415 2420 c-10 -11 -13 -20 -8 -20 13 0 38 29 31 35 -3 3 -13 -4
-23 -15z"/>
<path d="M3735 2369 c-10 -15 1 -23 20 -15 9 3 13 10 10 16 -8 13 -22 13 -30
-1z"/>
<path d="M8080 2200 c-8 -5 -10 -10 -5 -10 6 0 17 5 25 10 8 5 11 10 5 10 -5
0 -17 -5 -25 -10z"/>
<path d="M8011 2151 c-7 -5 -12 -14 -10 -20 3 -6 9 -7 18 -2 7 5 12 14 10 20
-3 6 -9 7 -18 2z"/>
<path d="M3270 1840 c0 -5 -7 -10 -15 -10 -19 0 -19 -14 1 -34 8 -9 17 -25 19
-36 2 -11 7 -25 11 -32 4 -7 -7 -2 -24 11 -18 12 -32 27 -32 32 0 5 -9 9 -19
9 -11 0 -22 4 -26 10 -3 5 -12 7 -19 4 -9 -3 -11 -16 -7 -42 5 -28 11 -38 29
-40 12 -2 22 -9 22 -15 0 -17 60 -69 73 -64 17 5 47 66 37 72 -17 10 -11 25
10 25 33 0 26 47 -10 68 -30 17 -39 32 -20 32 6 0 10 5 10 10 0 6 -9 10 -20
10 -11 0 -20 -4 -20 -10z"/>
<path d="M3810 1375 c-10 -12 -10 -15 4 -15 9 0 16 7 16 15 0 8 -2 15 -4 15
-2 0 -9 -7 -16 -15z"/>
<path d="M3580 1354 c0 -9 5 -14 12 -12 18 6 21 28 4 28 -9 0 -16 -7 -16 -16z"/>
<path d="M3637 1327 l-22 -22 23 -3 c31 -5 52 4 52 22 0 25 -29 27 -53 3z"/>
<path d="M4155 1199 c-10 -15 1 -23 20 -15 9 3 13 10 10 16 -8 13 -22 13 -30
-1z"/>
<path d="M4904 1189 c-8 -14 14 -29 32 -22 16 6 7 33 -11 33 -8 0 -17 -5 -21
-11z"/>
<path d="M4477 1114 c-4 -4 -7 -17 -7 -28 0 -19 1 -19 17 -3 12 11 14 20 7 27
-6 6 -13 7 -17 4z"/>
<path d="M4441 1046 l-24 -13 22 -13 c12 -6 29 -9 37 -6 8 3 14 -1 14 -9 0
-18 41 -20 58 -3 24 24 14 38 -19 26 -28 -10 -34 -8 -48 10 -14 19 -19 19 -40
8z"/>
<path d="M4431 956 c-9 -11 -5 -19 19 -40 39 -32 47 -32 84 0 35 31 27 39 -40
48 -38 5 -54 3 -63 -8z"/>
<path d="M4215 915 c-16 -13 -25 -24 -19 -25 6 0 21 11 34 25 30 32 24 32 -15
0z"/>
<path d="M10723 765 c-39 -53 -103 -133 -143 -178 -63 -72 -87 -112 -199 -334
l-128 -253 274 0 273 0 0 430 c0 237 -2 430 -4 430 -2 0 -35 -43 -73 -95z"/>
<path d="M3410 820 c0 -6 8 -13 18 -17 31 -11 91 -64 104 -91 7 -15 29 -34 48
-43 19 -9 50 -35 68 -58 31 -38 36 -41 82 -41 49 0 50 -1 50 -31 0 -17 -5 -39
-11 -51 -6 -11 -8 -30 -5 -41 7 -28 154 -124 311 -202 95 -47 130 -60 166 -60
l47 0 -44 47 c-24 26 -44 55 -44 64 0 21 -47 65 -65 62 -8 -2 -73 57 -145 130
-114 116 -160 151 -160 124 0 -15 -87 -4 -116 14 -16 10 -59 45 -95 77 -36 32
-95 73 -130 92 -70 37 -79 40 -79 25z"/>
<path d="M5972 638 c3 -7 17 -14 31 -16 21 -3 26 0 21 12 -7 19 -58 22 -52 4z"/>
<path d="M1833 500 c216 -99 342 -189 416 -299 22 -31 47 -63 56 -71 9 -8 35
-40 56 -72 39 -57 40 -58 89 -58 l49 0 -14 41 c-32 90 -91 186 -155 249 -72
72 -137 113 -250 158 -68 27 -325 102 -346 102 -5 0 40 -23 99 -50z"/>
<path d="M4300 172 c0 -12 19 -26 26 -19 2 2 -2 10 -11 17 -9 8 -15 8 -15 2z"/>
<path d="M4340 131 c0 -5 5 -13 10 -16 6 -3 10 -2 10 4 0 5 -4 13 -10 16 -5 3
-10 2 -10 -4z"/>
<path d="M2324 55 c14 -37 27 -55 39 -55 23 0 22 4 -13 55 -43 63 -50 62 -26
0z"/>
</g>
</svg>
